<svg width="180" height="34" viewBox="0 0 180 34" fill="none" xmlns="http://www.w3.org/2000/svg">
<path d="M161.203 26.9149H167.707C167.959 27.7349 168.817 28.5548 170.425 28.5548C172.602 28.5548 173.352 27.2026 173.352 25.2031V23.7789H173.208C172.134 25.0304 170.706 25.9511 168.601 25.9511C164.455 25.9511 160.85 22.887 160.85 16.8955C160.85 11.4076 163.813 7.12792 168.284 7.12792C170.858 7.12792 172.429 8.16366 173.468 9.80359H173.576V7.70333H180.007V24.3112C180.007 27.3752 178.933 29.7632 177.325 31.1945C175.645 32.6906 173.251 33.2948 170.533 33.2948C165.421 33.2948 161.852 31.1874 161.203 26.9149ZM173.641 16.5719C173.641 14.1839 172.501 12.2563 170.533 12.2563C168.637 12.2563 167.426 13.9681 167.426 16.5719C167.426 19.1397 168.644 20.9882 170.533 20.9882C172.494 20.9954 173.641 19.1037 173.641 16.5719ZM153.669 10.976H153.777C155.168 8.30033 156.993 7.30774 159.314 7.30774C159.848 7.30774 160.208 7.37966 160.425 7.48755V13.3711H160.28C156.315 12.6591 153.993 14.5507 153.993 18.8591V26.879H147.237V7.70333H153.669V10.976ZM0 0H13.2233C15.7252 0 17.6503 0.604183 19.013 1.71185C20.5488 2.95618 21.3707 4.81189 21.3707 7.02003C21.3707 9.58781 20.3325 11.1918 18.1911 12.1916V12.2994C20.9814 13.2273 22.5892 15.7231 22.5892 18.7513C22.5892 21.6355 21.4789 23.8868 19.6619 25.239C18.1262 26.3467 16.129 26.879 13.4829 26.879H0V0ZM12.5816 20.9234C14.1895 20.9234 15.3647 19.9596 15.3647 18.1758C15.3647 16.3201 14.0813 15.4282 12.5456 15.4282H7.32546V20.9162H12.5816V20.9234ZM11.8967 10.5157C13.3243 10.5157 14.3625 9.73166 14.3625 8.16366C14.3625 6.63163 13.2882 5.88359 11.8606 5.88359H7.32546V10.5157H11.8967Z" fill="#9199A6"/>
<path d="M23.8005 0H30.7294V26.879H23.8005V0ZM32.056 17.3199C32.056 11.2637 35.9855 7.16388 42.0637 7.16388C48.1418 7.16388 51.9992 11.2637 51.9992 17.3199C51.9992 23.4193 48.1418 27.4759 42.0637 27.4759C35.9855 27.4831 32.056 23.4193 32.056 17.3199ZM45.1351 17.3199C45.1351 13.9681 44.0608 11.8679 41.9916 11.8679C39.9223 11.8679 38.92 13.9681 38.92 17.3199C38.92 20.7077 39.9223 22.8079 41.9916 22.8079C44.0608 22.8151 45.1351 20.7077 45.1351 17.3199ZM52.7851 17.3199C52.7851 11.2637 56.7146 7.16388 62.7927 7.16388C68.8708 7.16388 72.7282 11.2637 72.7282 17.3199C72.7282 23.4193 68.8708 27.4759 62.7927 27.4759C56.7146 27.4831 52.7851 23.4193 52.7851 17.3199ZM65.8642 17.3199C65.8642 13.9681 64.7899 11.8679 62.7206 11.8679C60.6513 11.8679 59.6491 13.9681 59.6491 17.3199C59.6491 20.7077 60.6513 22.8079 62.7206 22.8079C64.7899 22.8151 65.8642 20.7077 65.8642 17.3199ZM74.0476 7.70333H80.479V10.5876H80.5872C81.8706 8.34348 83.6226 7.12792 86.3769 7.12792C88.8067 7.12792 90.6308 8.33629 91.5609 10.4437H91.6691C93.2409 7.91192 95.2813 7.12792 97.639 7.12792C102.109 7.12792 104.034 10.4078 104.034 14.8241V26.8718H97.2785V16.0396C97.2785 14.076 96.6729 12.7957 94.9569 12.7957C93.2769 12.7957 92.4189 14.3637 92.4189 16.4352V26.879H85.6559V16.0396C85.6559 14.076 85.0502 12.7957 83.3342 12.7957C81.6543 12.7957 80.7963 14.3637 80.7963 16.4352V26.879H74.0476V7.70333ZM112.283 24.3831H112.211V26.879H105.779V0H112.535V9.6957H112.643C113.927 8.01981 115.643 7.12792 118.108 7.12792C122.932 7.12792 125.722 11.4795 125.722 17.248C125.722 23.7717 122.687 27.5119 117.683 27.5119C115.607 27.5191 113.465 26.5193 112.283 24.3831ZM118.858 17.1833C118.858 14.0832 117.719 12.0837 115.679 12.0837C113.609 12.0837 112.283 14.0832 112.283 17.1833C112.283 20.2473 113.602 22.2828 115.679 22.2828C117.748 22.2757 118.858 20.2833 118.858 17.1833ZM126.58 17.2552C126.58 11.2637 130.546 7.09915 136.3 7.09915C139.155 7.09915 141.375 7.99104 143.055 9.595C145.269 11.7312 146.271 15.083 146.199 19.039H133.3C133.589 21.4269 134.728 22.6425 136.768 22.6425C137.951 22.6425 138.982 22.1102 139.414 20.8227H145.918C144.779 25.2031 141.383 27.4184 136.559 27.4184C130.582 27.4112 126.58 23.3833 126.58 17.2552ZM133.3 15.2556H139.443C139.335 12.9396 138.052 11.724 136.444 11.724C134.584 11.724 133.545 13.0475 133.3 15.2556Z" fill="#9199A6"/>
</svg>
