<svg width="174" height="34" viewBox="0 0 174 34" fill="none" xmlns="http://www.w3.org/2000/svg">
<path d="M-0.00421143 26.974V4.65666L11.7334 0L15.9843 3.65738V8.48725L11.7334 4.65666L5.32531 7.04834V12.984H15.3182V17.6474H5.32531V22.1441H15.9843V26.974H-0.00421143Z" fill="#9199A6"/>
<path d="M31.1399 26.9742L30.8068 25.3088H30.6403C30.3291 25.6618 29.9627 25.9949 29.541 26.308C28.5198 26.9742 27.3313 27.3073 25.9769 27.3073C23.6899 27.3073 21.7579 26.4746 20.1811 24.8091C18.6042 23.1436 17.8161 21.0318 17.8161 18.4803C17.8161 15.9288 18.6042 13.817 20.1811 12.1515C21.7579 10.486 23.6899 9.6533 25.9769 9.6533C27.1981 9.6533 28.2972 9.9331 29.2745 10.486C29.5856 10.6659 29.9294 10.939 30.3072 11.3188H30.4737V3.65759H35.4701V26.9742H31.1399ZM23.8784 21.5115C24.6112 22.2643 25.5326 22.644 26.6431 22.644C27.7537 22.644 28.6697 22.2643 29.3911 21.4982C30.1126 20.7321 30.4737 19.7261 30.4737 18.4803C30.4737 17.2345 30.1126 16.2352 29.3911 15.4625C28.6697 14.6963 27.7537 14.3166 26.6431 14.3166C25.5326 14.3166 24.6166 14.6963 23.8951 15.4625C23.1736 16.2352 22.8125 17.2345 22.8125 18.4803C22.8125 19.7261 23.1676 20.7321 23.8784 21.5115Z" fill="#9199A6"/>
<path d="M38.6335 20.3137V9.98779H43.6299V19.3145C43.6299 20.2471 43.9243 21.0065 44.5125 21.5994C45.1008 22.1857 45.8616 22.4789 46.7943 22.4789C47.7269 22.4789 48.4877 22.1857 49.076 21.5994C49.6642 21.0065 49.9587 20.2471 49.9587 19.3145V9.98779H54.9551V26.9756H50.6249L50.2918 25.4767H50.1252C49.8588 25.7898 49.481 26.0964 48.9927 26.4095C48.082 27.009 46.9055 27.3087 45.4619 27.3087C43.4633 27.3087 41.8258 26.6626 40.5487 25.3568C39.2717 24.0644 38.6335 22.3789 38.6335 20.3137Z" fill="#9199A6"/>
<path d="M56.7882 21.6469H61.6181C61.6627 22.0466 61.7846 22.3797 61.9845 22.6462C62.4728 23.3123 63.2949 23.6454 64.4494 23.6454C65.3154 23.6454 65.9763 23.4856 66.4313 23.1658C66.8863 22.8394 67.1141 22.4463 67.1141 21.98C67.1141 21.467 66.9696 21.094 66.6811 20.8475C66.3926 20.601 65.8704 20.4277 65.1156 20.3145L62.6174 19.9814C60.6408 19.7149 59.2031 19.1754 58.3038 18.3626C57.4044 17.5565 56.9548 16.4306 56.9548 14.985C56.9548 13.4727 57.5989 12.207 58.8867 11.1877C60.1744 10.1685 61.9732 9.65546 64.2828 9.65546C67.2807 9.65546 69.4238 10.5415 70.7116 12.3202C71.2891 13.0997 71.6442 13.9857 71.7775 14.985H66.9476C66.8363 14.6985 66.6811 14.4521 66.4813 14.2523C65.9703 13.7393 65.2375 13.486 64.2828 13.486C63.4614 13.486 62.8392 13.626 62.4175 13.9058C61.9958 14.179 61.7846 14.5386 61.7846 14.985C61.7846 15.6711 62.4508 16.1175 63.7832 16.3174L66.2814 16.6504C70.0567 17.1368 71.944 18.9155 71.944 21.98C71.944 23.4922 71.2892 24.7579 69.9788 25.7772C68.6684 26.7965 66.8257 27.3095 64.4494 27.3095C61.2963 27.3095 59.0645 26.3635 57.7542 24.4782C57.1766 23.6321 56.8548 22.6928 56.7882 21.6469Z" fill="#9199A6"/>
<path d="M73.942 33.6383V9.98855H78.2722L78.6053 11.654H78.7719C79.0164 11.3009 79.3714 10.9679 79.8377 10.6547C80.859 9.98855 82.0582 9.65546 83.4352 9.65546C85.7222 9.65546 87.6541 10.4882 89.231 12.1537C90.8079 13.8191 91.596 15.931 91.596 18.4825C91.596 21.034 90.8079 23.1458 89.231 24.8113C87.6541 26.4767 85.7222 27.3095 83.4352 27.3095C82.1248 27.3095 81.0256 27.0297 80.1375 26.4767C79.8264 26.2969 79.4827 26.0237 79.105 25.644H78.9384V33.6383H73.942ZM80.0043 21.5137C80.7371 22.2665 81.6585 22.6462 82.769 22.6462C83.8795 22.6462 84.7955 22.2664 85.517 21.5003C86.2385 20.7342 86.5996 19.7282 86.5996 18.4825C86.5996 17.2367 86.2385 16.2374 85.517 15.4646C84.7955 14.6985 83.8795 14.3188 82.769 14.3188C81.6585 14.3188 80.7425 14.6985 80.021 15.4646C79.2995 16.2374 78.9384 17.2367 78.9384 18.4825C78.9384 19.7282 79.2935 20.7342 80.0043 21.5137Z" fill="#9199A6"/>
<path d="M93.7623 26.9756V9.98779H98.0926L98.4257 11.3202H98.5922C98.814 11.0537 99.0472 10.8339 99.2917 10.654C99.8913 10.2076 100.657 9.98779 101.59 9.98779H104.754V14.6511H101.757C99.758 14.6511 98.7588 15.6504 98.7588 17.649V26.9756H93.7623Z" fill="#9199A6"/>
<path d="M119.909 24.8446C118.265 26.4901 116.156 27.3095 113.58 27.3095C111.004 27.3095 108.889 26.4834 107.235 24.8313C105.58 23.1725 104.753 21.0606 104.753 18.4825C104.753 15.9043 105.58 13.7925 107.235 12.1337C108.889 10.4815 111.004 9.65546 113.58 9.65546C116.156 9.65546 118.271 10.4815 119.926 12.1337C121.58 13.7925 122.407 15.9043 122.407 18.4825C122.407 21.0606 121.574 23.1791 119.909 24.8446ZM110.815 21.5137C111.548 22.2665 112.47 22.6462 113.58 22.6462C114.691 22.6462 115.607 22.2664 116.328 21.5003C117.05 20.7342 117.411 19.7282 117.411 18.4825C117.411 17.2367 117.05 16.2374 116.328 15.4646C115.607 14.6985 114.691 14.3188 113.58 14.3188C112.47 14.3188 111.554 14.6985 110.832 15.4646C110.111 16.2374 109.75 17.2367 109.75 18.4825C109.75 19.7282 110.105 20.7342 110.815 21.5137Z" fill="#9199A6"/>
<path d="M124.573 20.3137V9.98779H129.57V19.3145C129.57 20.2471 129.864 21.0065 130.453 21.5994C131.041 22.1857 131.802 22.4789 132.734 22.4789C133.667 22.4789 134.428 22.1857 135.016 21.5994C135.604 21.0065 135.899 20.2471 135.899 19.3145V9.98779H140.895V26.9756H136.565L136.232 25.4767H136.065C135.799 25.7898 135.421 26.0964 134.933 26.4095C134.022 27.009 132.846 27.3087 131.402 27.3087C129.403 27.3087 127.766 26.6626 126.489 25.3568C125.212 24.0644 124.573 22.3789 124.573 20.3137Z" fill="#9199A6"/>
<path d="M145.558 22.3126V14.6514H142.893V9.98809H145.558V4.65857H150.555V9.98809H154.385V14.6514H150.555V21.1468C150.555 21.9262 150.943 22.3126 151.72 22.3126H154.385V26.9759H150.388C147.168 26.9759 145.558 25.4237 145.558 22.3126Z" fill="#9199A6"/>
<path d="M167.543 21.8134H172.54C172.14 22.8593 171.574 23.7788 170.841 24.5782C169.109 26.3969 166.955 27.3095 164.379 27.3095C161.803 27.3095 159.687 26.4834 158.033 24.8313C156.379 23.1725 155.552 21.0606 155.552 18.4825C155.552 15.9043 156.379 13.7925 158.033 12.1337C159.687 10.4815 161.803 9.65546 164.379 9.65546C166.866 9.65546 168.931 10.4683 170.574 12.0871C172.218 13.706 173.039 15.7311 173.039 18.1494C173.039 18.4625 173.006 18.8823 172.939 19.4152L172.873 19.8148H160.548C160.637 20.8341 161.031 21.6735 161.731 22.3331C162.43 22.9859 163.313 23.3123 164.379 23.3123C165.267 23.3123 166.066 23.066 166.777 22.5796C167.132 22.3132 167.388 22.0599 167.543 21.8134ZM160.548 16.817H168.209C167.721 14.5986 166.444 13.486 164.379 13.486C162.314 13.486 161.036 14.5986 160.548 16.817Z" fill="#9199A6"/>
</svg>
