<svg width="165" height="24" viewBox="0 0 165 24" fill="none" xmlns="http://www.w3.org/2000/svg">
<path d="M27.0113 20.9021V2.82178C27.0113 1.88119 27.2197 1.17574 27.6625 0.705446C28.0793 0.235149 28.6523 0 29.3296 0C30.0328 0 30.6059 0.235149 31.0226 0.705446C31.4655 1.17574 31.6738 1.88119 31.6738 2.82178V20.9021C31.6738 21.8427 31.4655 22.5743 31.0226 23.0446C30.5798 23.5149 30.0328 23.75 29.3296 23.75C28.6523 23.75 28.1053 23.5149 27.6886 23.0446C27.2458 22.5481 27.0113 21.8427 27.0113 20.9021Z" fill="#9199A6"/>
<path d="M153.055 23.7239C146.543 23.7239 141.23 18.3938 141.23 11.8619C141.23 5.33003 146.543 0 153.055 0C159.567 0 164.881 5.33003 164.881 11.8619C164.881 18.42 159.593 23.7239 153.055 23.7239ZM153.055 4.80748C149.174 4.80748 146.023 7.96892 146.023 11.8619C146.023 15.7549 149.174 18.9164 153.055 18.9164C156.936 18.9164 160.088 15.7549 160.088 11.8619C160.088 7.99505 156.936 4.80748 153.055 4.80748Z" fill="#9199A6"/>
<path d="M99.9965 23.7239C93.4846 23.7239 88.1709 18.3938 88.1709 11.8619C88.1709 5.33003 93.4846 0 99.9965 0C106.508 0 111.822 5.33003 111.822 11.8619C111.822 18.42 106.508 23.7239 99.9965 23.7239ZM99.9965 4.80748C96.1154 4.80748 92.9636 7.96892 92.9636 11.8619C92.9636 15.7549 96.1154 18.9164 99.9965 18.9164C103.878 18.9164 107.029 15.7549 107.029 11.8619C107.029 7.99505 103.878 4.80748 99.9965 4.80748Z" fill="#9199A6"/>
<path d="M137.453 11.8619C137.453 9.24918 136.593 6.81931 135.161 4.85974C133.077 2.01183 129.743 0.130638 125.966 0C125.836 0 125.731 0 125.601 0H119.662C118.646 0 117.917 0.235149 117.474 0.705446C117.031 1.17574 116.797 1.90732 116.797 2.95242V20.7976C116.797 21.8427 117.031 22.5743 117.474 23.0446C117.917 23.5149 118.672 23.75 119.662 23.75H125.601C125.731 23.75 125.836 23.75 125.966 23.75C129.743 23.6455 133.051 21.7643 135.161 18.8903C136.593 16.9046 137.453 14.4747 137.453 11.8619ZM126.461 18.8641C125.888 18.8903 125.263 18.9164 124.611 18.9164H121.512V4.80748H124.611C125.263 4.80748 125.888 4.80748 126.461 4.85974C128.518 5.09488 130.29 6.2445 131.41 7.86441C132.191 8.9879 132.66 10.3727 132.66 11.8619C132.66 13.3512 132.191 14.7098 131.41 15.8333C130.29 17.5055 128.518 18.629 126.461 18.8641Z" fill="#9199A6"/>
<path d="M81.4766 0.104448C80.617 -0.156828 79.6793 0.182831 79.1844 0.940532L72.0474 11.8357L64.9104 0.940532C64.4155 0.182831 63.4778 -0.156828 62.6182 0.104448C61.7587 0.365724 61.1596 1.20181 61.1596 2.11627V21.4768C61.1596 22.6264 62.0712 23.5932 63.2173 23.5932C64.3374 23.5932 65.2751 22.6526 65.2751 21.4768V9.01396L70.3283 16.7477C70.3283 16.7477 70.3283 16.7477 70.3283 16.7739C70.3283 16.7739 70.3283 16.8 70.3543 16.8C70.3804 16.8522 70.4064 16.9045 70.4585 16.9306C70.4846 16.9568 70.4846 16.9568 70.5106 16.9829C70.5367 17.009 70.5627 17.0613 70.5888 17.0874C70.6148 17.1135 70.6409 17.1396 70.6669 17.1658C70.6929 17.1919 70.719 17.1919 70.719 17.218C70.7711 17.2442 70.7971 17.2703 70.8492 17.3225L70.8753 17.3487C70.9274 17.3748 70.9795 17.4009 71.0055 17.4271C71.0316 17.4271 71.0316 17.4532 71.0316 17.4532C71.0576 17.4793 71.1097 17.4793 71.1358 17.5054C71.3441 17.6099 71.5525 17.6622 71.7869 17.6883C71.839 17.6883 71.8651 17.6883 71.9172 17.6883C71.9432 17.6883 71.9693 17.6883 71.9953 17.6883C72.0214 17.6883 72.0474 17.6883 72.0735 17.6883C72.1256 17.6883 72.1516 17.6883 72.2037 17.6883C72.4121 17.6622 72.6465 17.6099 72.8549 17.5054C72.8809 17.4793 72.933 17.4793 72.9591 17.4532L72.9851 17.4271C73.0372 17.4009 73.0893 17.3748 73.1154 17.3487C73.1414 17.3487 73.1414 17.3225 73.1414 17.3225C73.1935 17.2964 73.2196 17.2703 73.2716 17.218C73.2977 17.1919 73.3237 17.1919 73.3237 17.1658C73.3498 17.1396 73.3758 17.1135 73.4019 17.0874C73.4279 17.0613 73.454 17.0351 73.48 16.9829C73.5061 16.9568 73.5061 16.9568 73.5321 16.9306C73.5582 16.8784 73.6103 16.8522 73.6363 16.8L73.6624 16.7739C73.6624 16.7739 73.6624 16.7739 73.6624 16.7477L78.7156 9.01396V21.4768C78.7156 22.6264 79.6272 23.5932 80.7733 23.5932C81.8934 23.5932 82.8311 22.6526 82.8311 21.4768V2.11627C82.9353 1.20181 82.3362 0.365724 81.4766 0.104448Z" fill="#9199A6"/>
<path d="M54.1788 23.0184H38.8369C38.0294 23.0184 37.1438 22.522 36.8052 21.7382C36.4665 20.9543 36.4144 19.8831 37.1177 19.0209L49.6466 4.41556H39.2797C38.1596 4.41556 37.2219 3.42272 37.2219 2.22085C37.2219 1.01898 38.1336 0.261276 39.2797 0.261276H53.2411C54.0486 0.261276 54.8821 0.391914 55.6115 1.20187C56.2887 1.93344 56.2366 3.52723 55.5073 4.46782L43.3952 18.629H54.1788C55.3249 18.629 56.1324 19.6218 56.1324 20.8237C56.1324 22.0256 55.3249 23.0184 54.1788 23.0184Z" fill="#9199A6"/>
<path d="M11.7474 23.7239C8.33521 23.7239 5.2616 22.3652 3.04756 19.9092C1.12004 17.7668 0 14.9189 0 12.0971C0 3.29208 7.29331 0 11.9037 0C16.436 0 19.744 2.22085 19.9003 2.32536C20.9162 3.0308 21.2027 4.41557 20.4994 5.46067C19.8222 6.50577 18.4417 6.76705 17.4258 6.08773C17.3737 6.0616 15.0034 4.52008 11.9037 4.52008C9.01245 4.52008 5.02717 6.42739 5.02717 12.0971C5.02717 15.3108 7.42355 19.1254 11.7995 19.1254C14.274 19.1254 15.9932 18.4722 17.009 17.819V14.4747H13.6229C12.3986 14.4747 11.4088 13.4557 11.4088 12.2277C11.4088 10.9736 12.3986 9.98074 13.6229 9.98074H19.2752C20.4994 9.98074 21.4892 10.9997 21.4892 12.2277V18.9425C21.4892 19.5434 21.2548 20.1444 20.812 20.5624C19.3273 22.0256 16.0453 23.7239 11.7474 23.7239Z" fill="#9199A6"/>
</svg>
