<svg width="99" height="37" viewBox="0 0 99 37" fill="none" xmlns="http://www.w3.org/2000/svg">
<g clip-path="url(#clip0_199_590)">
<path d="M17.0252 4.34379C17.1494 4.28815 17.389 4.37936 17.4969 4.44392C18.0642 4.78334 18.3287 5.60396 18.5081 6.19232C18.0719 7.0231 18.0291 7.89947 17.272 8.56101C17.8304 8.77531 18.1167 9.03953 18.4018 9.57169C18.8533 10.4144 18.5606 11.0456 18.7757 11.9248C19.0206 12.9262 19.5962 13.5896 19.9988 14.4176C20.28 15.209 20.3632 16.0573 20.7879 16.8026C20.9846 17.1479 21.2625 17.3802 21.4856 17.7025C21.5588 17.8083 21.4815 17.8435 21.4668 17.971C21.4277 18.3107 21.9063 18.496 22.0539 18.7668C22.2409 19.0877 22.365 19.4202 22.5949 19.7113C23.0264 19.5516 23.3677 19.3832 23.8424 19.4588C24.8703 19.6226 25.2114 20.5901 25.145 21.5212C25.1344 21.6691 24.9265 21.8968 25.0027 22.057C25.3723 22.2741 25.7914 22.4031 26.002 22.8151C26.2165 23.235 26.1454 23.9773 26.0699 24.4361C25.9849 24.9519 25.7881 25.5005 25.7979 26.0312C25.8132 26.862 25.845 27.6629 25.7839 28.4923C25.7608 28.8516 25.9193 29.3032 25.882 29.7108C25.6531 30.0773 24.1308 30.9494 23.695 31.2022C23.6768 30.7926 23.6722 30.5119 23.4643 30.1456C22.8494 29.0625 21.6898 29.3723 20.6609 29.2911C20.1154 29.248 19.6731 29.1241 19.1636 28.9723C19.1143 28.9702 15.8234 28.1178 15.5273 28.0035C15.3922 27.9513 15.3049 27.1917 15.1243 27.0582C14.9077 26.8983 14.5725 26.996 14.4649 26.7519C14.2788 26.3296 14.146 24.8827 13.7829 24.6081L13.7149 24.6537C13.6157 25.0017 13.7045 25.4002 13.6519 25.7457C13.5371 26.5003 13.416 27.2389 13.3188 27.997C12.6195 28.1628 12.4166 28.1877 11.7678 28.5275C11.7468 28.0623 11.6227 26.9364 11.5437 26.4842C11.1839 26.3943 10.5845 26.3292 10.4182 25.969C10.2875 25.6858 10.5628 25.3096 10.5574 25.0522C10.5506 24.7203 10.3435 24.3255 10.3499 23.9798C10.3449 23.671 10.5219 23.2199 10.5067 22.9264C10.4449 21.7268 10.4487 20.5604 10.5485 19.362C10.5901 19.1434 10.4673 18.3035 10.5186 18.1436C10.833 17.1637 10.5718 16.1863 10.6613 15.2468C10.7176 14.6549 11.4089 13.7248 11.5475 13.0858C11.8046 11.9001 11.5903 10.6265 12.1189 9.52615C12.9239 7.79332 14.5115 8.47238 15.1936 6.89809C15.0655 5.95022 15.0999 6.11554 15.3186 5.22328C15.9962 4.65728 16.1541 4.38319 17.0252 4.34379ZM20.7543 25.3083C21.0998 25.1163 21.1661 25.0941 21.5661 25.016C21.6919 24.5968 21.7517 24.3104 21.8339 23.8821C21.5631 23.3961 21.1907 23.1908 20.7475 22.9024C19.5399 22.1164 18.7714 21.701 18.4295 20.2316C18.288 19.6235 18.2011 19.4561 18.171 18.7413C17.921 18.5469 17.8513 18.4528 17.6534 18.202C16.6669 18.2576 16.9142 17.4564 16.2704 17.3872C16.8582 18.9388 17.0896 20.0213 17.2553 21.6905C17.267 22.2222 17.1827 22.7303 17.266 23.2538C17.3019 23.4789 17.6689 24.5574 17.6634 24.566C17.3967 24.9857 17.7498 25.8891 17.6908 26.2143C17.5521 26.3076 17.3524 26.3534 17.35 26.4473C17.3357 27.0198 17.4071 27.7418 17.4398 28.3044C17.5682 27.9268 17.6248 27.7973 17.8763 27.4905C18.3562 26.905 18.6338 26.2002 19.002 25.5501C19.5832 24.8547 20.0156 24.7776 20.7543 25.3083ZM16.0413 15.2029C16.4003 16.0515 16.5509 16.2772 17.4295 16.6353C19.1371 17.3311 19.0134 19.3364 19.8755 20.6411C19.985 20.8068 21.4203 21.5596 21.6355 21.6082C21.7799 21.6502 21.8928 21.6818 22.0402 21.7105C22.2222 21.6094 22.1557 21.4355 22.1311 21.2444L22.0772 21.172L21.9601 21.1972C21.8908 20.9356 22.0106 20.6735 21.9949 20.3997C21.9908 20.2389 21.7234 19.9076 21.6954 19.7847C21.5023 18.9366 20.8165 18.9976 20.1272 18.7631C19.5087 18.5525 20.0204 17.9871 20.1869 17.6411C19.6583 16.8355 19.0429 16.0247 18.5789 15.1724C18.388 14.8218 17.6512 12.5441 17.4401 12.4045C17.3761 12.4686 16.1182 14.993 16.0413 15.2029Z" fill="#9199A6"/>
<path d="M40.1099 3.65902C41.7889 3.62015 43.6154 3.65228 45.3043 3.65054C45.5615 4.00312 46.0406 4.88147 46.2851 5.3025L48.2219 8.65179C50.0805 11.8694 51.9991 15.0945 53.8183 18.329C53.825 17.034 53.6599 15.7994 53.6565 14.5036C53.6474 10.8893 53.6397 7.26979 53.6546 3.65577C54.8945 3.65009 56.1338 3.65146 57.3737 3.65989C57.3751 10.112 57.3084 16.6861 57.3818 23.1283L56.9407 23.1138L52.1354 23.1184C51.8565 22.7132 51.5488 22.1383 51.2949 21.6964L49.8899 19.249L45.625 11.8306C45.1321 10.9699 44.0689 8.99753 43.529 8.2631C43.5793 9.36145 43.7423 10.5291 43.744 11.6481C43.7445 11.9934 43.8178 12.385 43.8229 12.7465C43.84 13.9727 43.8356 15.1982 43.8361 16.4244L43.8379 23.1257C42.5973 23.111 41.3565 23.1136 40.116 23.1336C40.0794 22.4475 40.106 21.5609 40.1058 20.8527L40.1056 16.5496L40.1099 3.65902Z" fill="#9199A6"/>
<path d="M65.9773 20.0911C65.9 20.2077 65.7152 20.4699 65.6087 20.5476C65.4949 20.6301 65.3519 20.6617 65.2141 20.6347C64.9751 20.5856 64.6218 20.2978 64.4173 20.1499C63.1784 19.254 62.1056 18.1695 61.2776 16.8734C60.8576 16.215 60.1846 15.0611 60.1265 14.2596C60.1078 14.0025 60.3132 13.4937 60.3032 13.0993C60.2878 12.4841 60.174 11.7702 60.3003 11.1815L60.3584 11.17L60.4918 11.3403C60.5868 11.3277 61.0318 9.61259 61.1019 9.30456C61.5987 7.1283 64.5978 3.17961 67.0794 3.30274L67.0943 3.36238C66.7703 3.64569 66.3186 3.96643 66.4021 4.44469C66.5384 4.47204 67.4284 4.12517 67.6592 4.04225C68.8885 3.60046 71.7979 3.17384 72.9518 3.77514C71.7599 3.59797 71.1138 3.76896 69.9551 3.91968C70.8422 4.02852 71.6879 3.94022 72.5793 4.01151C73.2072 4.06173 73.7889 4.23617 74.4096 4.29791C74.5829 4.31515 74.7725 4.07662 74.9846 4.08221C75.4392 4.09416 75.8433 4.64625 76.1362 4.9837C74.7096 5.01767 73.5081 4.57613 72.0004 4.67865C69.5764 4.84348 67.2642 6.22976 65.7071 8.05769C63.4491 10.7085 63.7275 16.5356 67.7528 17.3713C68.3601 17.4974 70.1606 17.1711 70.449 17.4135C70.5306 17.6674 70.2302 18.0724 70.0881 18.4088C70.2081 18.5092 70.3382 18.6551 70.4481 18.7708C70.4135 19.0584 70.365 19.2925 70.305 19.5765C70.3535 19.7596 70.3862 19.9207 70.4846 20.0843C70.6247 20.0488 70.7298 19.6678 70.822 19.6928C71.4407 19.861 71.9644 19.925 72.5721 19.6025C72.0081 20.3985 71.1172 20.9867 70.1159 20.9532C69.8414 20.8705 69.5701 20.8042 69.2927 20.7351C69.5173 20.8705 69.8102 21.0365 70.0132 21.1916C69.8375 21.2855 69.0618 21.3734 68.8386 21.3708C67.6156 21.3566 66.8173 20.9369 65.9773 20.0911Z" fill="#9199A6"/>
<path d="M65.5243 4.60266L65.5871 4.66455C65.6035 4.8821 65.3006 5.07055 65.1148 5.20423C63.9978 6.00767 63.5423 6.6764 62.7882 7.76545C62.7325 7.7381 62.7489 7.74357 62.7148 7.67471C63.1713 6.50581 64.4481 5.23331 65.5243 4.60266Z" fill="#9199A6"/>
<path d="M67.3406 20.2651C67.6727 20.2214 68.4048 20.2689 68.6136 20.5809C68.2737 20.6154 67.5628 20.5396 67.3406 20.2651Z" fill="#9199A6"/>
<path d="M71.6212 5.85466C71.4479 5.87726 71.3639 5.91714 71.218 5.8548C71.5502 5.29538 73.3555 5.23473 73.907 5.64813C74.0481 5.76987 74.2108 5.95514 74.4024 5.87596C74.2305 5.74002 74.1499 5.67649 74.0006 5.51065C74.2056 5.36746 74.3841 5.41472 74.6376 5.45705C75.5841 5.61506 76.4059 6.17698 76.9507 6.96319C77.1461 7.24678 77.2992 7.55687 77.4062 7.88404C78.1791 7.3048 78.3015 7.47937 78.8496 8.21337C80.2479 10.0868 81.193 12.5588 81.0596 14.9149C81.0409 15.2449 80.6391 15.4618 80.5229 15.751C80.3304 16.2229 80.5104 17.3709 80.1058 17.7115L79.8423 17.7266C79.513 18.2273 79.2581 18.7941 78.9418 19.3026C78.0591 20.7224 76.919 21.998 75.4536 22.8317C74.9246 23.1324 74.3428 23.5745 73.7116 23.4984L73.6507 23.4537C73.7659 23.1301 74.2017 22.668 74.1609 22.4219C73.9564 22.3277 73.3704 22.7429 73.1188 22.8423C71.9323 23.3113 70.4418 23.433 69.2586 22.8991C69.2428 22.8921 69.2274 22.8847 69.2121 22.8769C70.1159 22.9106 70.7466 22.9948 71.6121 22.632C71.4047 22.5448 69.9863 22.6076 69.6503 22.5389C68.1724 22.2365 69.118 23.5713 67.4437 22.637C67.4917 22.1356 69.2601 22.0076 69.6882 21.913C70.0439 21.8344 70.3996 21.7351 70.7452 21.6136C72.6931 20.8757 75.071 18.6668 76.0234 16.8763C76.3728 16.2272 76.5926 15.5163 76.6699 14.7832C76.8912 12.7233 76.3618 10.4393 74.3937 9.59196C73.8196 9.34479 72.2284 9.21282 72.1814 8.63022C72.3158 8.3151 72.9959 8.09432 72.886 7.89983C72.5155 7.24448 73.5619 6.92182 73.1198 6.30539L73.0257 6.28461C72.9748 6.33308 72.791 6.54772 72.7795 6.54513C72.406 6.46274 71.9678 6.03024 71.6212 5.85466Z" fill="#9199A6"/>
<path d="M77.2497 19.8024C77.4604 20.4057 75.3287 22.0558 74.7657 22.2661C74.7628 21.9772 75.5395 21.4576 75.7948 21.2381C76.3084 20.7895 76.7942 20.31 77.2497 19.8024Z" fill="#9199A6"/>
<path d="M75.0931 6.45935C75.4719 6.54812 76.0196 6.81953 76.2509 7.15126C75.7555 7.05116 75.1474 7.07976 75.0931 6.45935Z" fill="#9199A6"/>
<path d="M47.3558 25.0212C49.2764 25.0404 50.2758 26.0533 50.3598 27.9646C50.4486 29.9844 49.6014 31.3083 47.5142 31.4001C45.1585 31.4002 44.2675 29.9219 44.4852 27.6556C44.6514 25.9256 45.6597 25.1155 47.3558 25.0212ZM47.6961 30.268C49.0076 29.9649 49.1137 28.4924 48.8761 27.3774C48.676 26.4373 48.0664 26.1045 47.1226 26.1606C45.7917 26.5262 45.6904 27.9495 45.9565 29.1228C46.1551 29.9982 46.8338 30.3161 47.6961 30.268Z" fill="#9199A6"/>
<path d="M87.5301 25.0607C89.7429 24.8234 91.0164 25.9793 91.0125 28.206C91.0092 29.8972 90.3535 31.0706 88.6202 31.3734C87.8061 31.4558 86.9589 31.3922 86.2499 30.9045C84.8444 29.9371 84.7835 27.3798 85.6941 26.0711C86.1203 25.4582 86.7971 25.1695 87.5301 25.0607ZM88.3562 30.266C89.6551 29.9411 89.7731 28.4653 89.5264 27.3478C89.3239 26.43 88.6869 26.0997 87.7821 26.1579C86.4385 26.5229 86.3397 27.9421 86.6013 29.1279C86.7961 30.0096 87.4902 30.3159 88.3562 30.266Z" fill="#9199A6"/>
<path d="M65.1694 25.1416C66.4309 25.109 68.4464 24.9358 69.4069 25.8537C70.6367 27.0287 70.5959 29.2545 69.4607 30.4996C68.2588 31.5335 66.68 31.3346 65.1488 31.3313C65.2419 29.4789 65.1723 27.0338 65.1694 25.1416ZM66.4967 30.2239C67.1927 30.2152 67.5949 30.2433 68.2199 29.917C69.3969 28.9768 69.1713 26.4048 67.4514 26.2428C67.2867 26.2273 67.1226 26.2239 66.9575 26.2223C66.8202 26.2263 66.6037 26.2137 66.4971 26.2837C66.4535 27.3153 66.4525 29.1893 66.4967 30.2239Z" fill="#9199A6"/>
<path d="M63.6013 25.1266L63.6358 25.1513C63.6762 25.6639 63.645 26.6831 63.645 27.2263L63.644 31.3279L61.9318 31.3348C61.7547 30.9458 61.2953 30.1885 61.0659 29.7882C60.4568 28.7459 59.8616 27.696 59.2798 26.6385C59.323 28.2461 59.3345 29.7237 59.3321 31.3337L58.1897 31.3325C58.0932 31.1984 58.134 25.6817 58.1335 25.1337L59.8332 25.138C60.018 25.3916 60.5004 26.2928 60.6742 26.5975C61.2776 27.6611 61.8901 28.7193 62.5126 29.7719C62.3998 28.3285 62.4445 26.6063 62.4464 25.1373L63.6013 25.1266Z" fill="#9199A6"/>
<path d="M96.5542 25.127L97.7643 25.1322C97.735 25.786 97.758 26.5962 97.7575 27.265L97.7595 31.3279L96.09 31.3357C95.4823 30.3497 94.9217 29.326 94.3433 28.3231C94.0274 27.7754 93.7034 27.1515 93.3434 26.6384C93.5128 28.0825 93.4543 29.8504 93.45 31.3297L92.2504 31.3323C92.2855 29.2972 92.2581 27.181 92.261 25.1398L93.929 25.1299C94.5333 26.1096 95.0844 27.1534 95.6719 28.1441C95.945 28.6047 96.3146 29.3247 96.6473 29.7117C96.4913 28.6238 96.5522 26.3096 96.5542 25.127Z" fill="#9199A6"/>
<path d="M72.969 25.0987L74.5775 25.0955L76.0065 29.1074C76.2038 29.6657 76.6329 30.7954 76.7491 31.335L75.347 31.3322C75.2332 31.0111 75.0287 30.0773 74.8511 29.864L74.7009 29.8505L72.6844 29.8475C72.5274 30.239 72.3421 30.9129 72.213 31.3348L70.7759 31.3313C71.529 29.3369 72.2509 27.1234 72.969 25.0987ZM72.9993 28.7351L73.8129 28.7362L74.5818 28.7365C74.4556 28.3459 73.8623 26.4211 73.7255 26.177C73.5734 26.9938 73.2513 27.9317 72.9993 28.7351Z" fill="#9199A6"/>
<path d="M51.5469 25.1439L52.8995 25.1256L52.8918 27.7684C52.8899 28.5429 52.7867 29.3435 53.2134 30.0172C53.7328 30.3429 54.1398 30.2922 54.7182 30.1869C55.5127 29.5634 55.3447 28.5688 55.3423 27.6474L55.3312 25.1367L56.6565 25.1307L56.6536 26.2244C56.6575 27.0177 56.7256 29.2509 56.5466 29.8875C56.4607 30.1994 56.2941 30.4835 56.0647 30.7116C55.1263 31.655 53.0704 31.6457 52.132 30.6936C51.9083 30.4708 51.7465 30.1937 51.6625 29.8895C51.46 29.1589 51.5435 26.0658 51.5469 25.1439Z" fill="#9199A6"/>
<path d="M39.9925 25.1244C41.179 25.1357 42.3656 25.1354 43.5521 25.1236L43.5463 26.2317C42.93 26.1938 41.9036 26.2213 41.2943 26.2437C41.3206 26.6978 41.308 27.3133 41.3154 27.7828C42.0011 27.7929 42.7066 27.7833 43.3938 27.7822L43.3937 28.8885C42.7026 28.8843 42.0115 28.8881 41.3205 28.9001C41.2778 29.5881 41.3017 30.6211 41.2991 31.3336L39.9913 31.3304L39.9925 25.1244Z" fill="#9199A6"/>
<path d="M76.9075 25.1437C78.2985 25.078 80.1754 25.1346 81.6005 25.1276L81.5947 26.2451C81.0398 26.2419 80.4845 26.2439 79.9296 26.251C79.9565 27.335 79.9459 28.4604 79.9493 29.5475C79.9517 30.1422 79.9488 30.7368 79.9406 31.3314L78.5803 31.334L78.5798 28.1623C78.5798 27.6077 78.5563 26.7862 78.6105 26.2496C78.048 26.2392 77.4734 26.2418 76.9094 26.2382C76.9209 25.885 76.9104 25.4994 76.9075 25.1437Z" fill="#9199A6"/>
<path d="M82.5285 25.1331L83.8542 25.1251L83.8533 31.3376C83.4251 31.3241 82.9552 31.3328 82.5237 31.3328C82.4752 29.3937 82.5011 27.077 82.5285 25.1331Z" fill="#9199A6"/>
<path d="M69.2927 20.735C69.5702 20.8041 69.8414 20.8704 70.1159 20.9531C70.0027 21.044 70.0363 21.0112 70.0132 21.1915C69.8102 21.0364 69.5174 20.8704 69.2927 20.735Z" fill="#9199A6"/>
<path d="M73.907 5.6481L74.0006 5.51062C74.1499 5.67646 74.2305 5.73999 74.4024 5.87594C74.2108 5.95512 74.0481 5.76984 73.907 5.6481Z" fill="#9199A6"/>
<path d="M16.5346 0H19.2284C19.6406 0.0914707 20.0538 0.114425 20.4725 0.172962C21.1116 0.262957 21.7446 0.391946 22.368 0.559207C26.5142 1.67368 30.4741 4.37363 32.7934 8.01657C35.4592 12.1884 36.3538 17.2497 35.2794 22.0822C34.7769 24.3367 33.8852 26.0827 32.5403 27.956C32.2268 28.3925 31.8413 29.0715 31.3804 29.3454C30.398 29.9291 29.6354 29.3594 29.3432 28.3942C29.6163 28.0568 29.9265 27.7704 30.1791 27.4096C32.5318 24.0484 33.7508 20.3811 33.3112 16.2608C32.8812 12.2321 30.8872 8.5329 27.7578 5.95849C20.8553 0.394751 11.6631 1.22736 5.97199 7.98302C3.34258 11.1042 1.86645 15.0415 2.38153 19.1504C2.71812 21.8622 3.96553 26.1642 6.24584 27.9199C7.29907 28.7309 9.42074 29.9362 10.8012 29.7415C11.895 29.5872 12.7265 28.8575 13.7711 28.8155C15.8722 28.7309 18.0827 29.7092 20.1224 30.1129C20.7848 30.244 21.631 30.1318 22.3977 30.2556C23.2577 30.93 22.663 31.4944 21.9526 31.892C20.4093 32.7557 18.6542 31.882 17.0749 31.6003C16.6349 31.5212 16.2524 31.5224 15.8127 31.5343C16.2895 32.4447 16.7956 32.9848 17.8172 33.3182C18.8625 33.6593 19.9137 33.4078 20.9544 33.1654C22.0591 32.9081 23.0959 32.4889 24.1098 31.9701C25.442 31.2912 26.6933 29.8912 28.3272 30.2071C28.4527 30.2313 28.6133 30.4141 28.6648 30.5253C28.7512 30.7118 28.6636 31.0196 28.4978 31.14C27.8948 31.5779 27.2778 31.9955 26.6699 32.4265C25.5859 33.1912 24.4316 34.0595 23.3078 34.7511C22.8216 35.0506 22.3139 35.3137 21.7889 35.5384C21.0765 35.8467 20.3286 36.0654 19.5624 36.1894C19.2335 36.2438 18.711 36.2818 18.4201 36.3735H16.7604C16.4163 36.2739 15.5201 36.2088 15.0783 36.1256C8.39468 34.8669 2.94276 29.9555 0.887416 23.5161C0.65443 22.7802 0.464253 22.0314 0.317834 21.2735C0.258725 20.9511 0.130266 19.6557 0 19.4845V16.0409C0.129283 15.8226 0.388759 13.9367 0.499341 13.4868C0.920056 11.7588 1.61451 10.1091 2.5564 8.60022C4.90374 4.8275 8.9163 1.82224 13.193 0.616406C13.8644 0.428338 14.5472 0.283349 15.2372 0.182321C15.6739 0.119595 16.1056 0.100084 16.5346 0Z" fill="#9199A6"/>
<path d="M83.918 3.65739L88.2035 3.65345C91.3471 3.65322 96.7227 3.32012 97.7038 7.24849C98.2006 9.23674 97.6155 11.8233 95.5198 12.6185C95.3527 12.6819 95.0599 12.7205 94.8713 12.7672C94.9673 12.9729 95.9114 13.2309 96.2086 13.3793C97.7695 14.1597 97.819 15.0014 98.3052 16.3757V18.5549C98.2083 18.6927 98.1512 18.9736 98.0979 19.1486C97.856 19.9378 97.5819 20.5122 96.9943 21.1086C94.7618 23.373 91.5866 23.1212 88.6864 23.1128C87.1019 23.1071 85.5174 23.1136 83.9329 23.1322C83.8911 22.5559 83.9195 21.5602 83.919 20.9449L83.9195 16.7346L83.918 3.65739ZM88.0341 19.6601C89.595 19.6913 92.1405 19.9479 93.3583 18.918C94.2204 17.9259 94.349 16.2341 93.3141 15.3654C92.1415 14.3811 89.5082 14.6337 88.0278 14.6445C88.06 15.6419 88.0389 16.6894 88.0408 17.692C88.0417 18.2669 88.0715 19.1028 88.0341 19.6601ZM88.06 11.3331C89.3354 11.3719 91.8938 11.524 92.9066 10.791C93.3924 10.3359 93.5733 9.90817 93.6007 9.2391C93.7073 6.63134 90.3861 7.09594 88.6744 7.05726C88.4589 7.05246 88.2366 7.05654 88.0264 7.06196C88.0749 8.4693 88.0417 9.91987 88.06 11.3331Z" fill="#9199A6"/>
<path d="M39.7338 35.7874L40.1395 33.344H40.5081L40.3316 34.4058H41.5497L41.7263 33.344H42.0961L41.6905 35.7874H41.3206L41.4972 34.722H40.2791L40.1025 35.7874H39.7338ZM41.9922 35.7874L42.3978 33.344H43.9297L43.8773 33.6613H42.714L42.5899 34.4058H43.6732L43.6207 34.722H42.5374L42.4133 35.4701H43.5909L43.5384 35.7874H41.9922ZM43.9878 35.7874H43.5964L44.8814 33.344H45.3073L45.781 35.7874H45.3896L45.0329 33.7878H45.0138L43.9878 35.7874ZM44.2121 34.8306H45.4815L45.429 35.1408H44.1596L44.2121 34.8306ZM45.8986 35.7874L46.3043 33.344H46.6729L46.3198 35.4701H47.427L47.3745 35.7874H45.8986ZM47.4743 33.6613L47.5267 33.344H49.4178L49.3653 33.6613H48.6029L48.2498 35.7874H47.8823L48.2354 33.6613H47.4743ZM49.1948 35.7874L49.6005 33.344H49.9691L49.7926 34.4058H51.0107L51.1873 33.344H51.5571L51.1515 35.7874H50.7816L50.9582 34.722H49.7401L49.5635 35.7874H49.1948ZM54.4074 34.1386H54.0423C54.0407 34.059 54.026 33.989 53.9982 33.9286C53.9703 33.8674 53.9322 33.8161 53.8836 33.7747C53.8359 33.7325 53.7798 33.7007 53.7154 33.6792C53.651 33.6578 53.5814 33.647 53.5066 33.647C53.3627 33.647 53.2274 33.6836 53.101 33.7568C52.9745 33.83 52.8667 33.9366 52.7777 34.0765C52.6886 34.2165 52.6273 34.3871 52.5939 34.5884C52.5613 34.784 52.5653 34.9483 52.6058 35.0811C52.6464 35.2139 52.7148 35.3146 52.8111 35.383C52.9081 35.4506 53.0246 35.4844 53.1606 35.4844C53.2402 35.4844 53.3177 35.474 53.3933 35.4534C53.4696 35.4319 53.5404 35.4005 53.6056 35.3591C53.6709 35.3177 53.7285 35.2672 53.7786 35.2076C53.8296 35.1471 53.8693 35.0779 53.898 35H54.2678C54.228 35.1209 54.172 35.2314 54.0996 35.3317C54.0272 35.4319 53.9417 35.5186 53.8431 35.5917C53.7444 35.6649 53.6363 35.7214 53.5186 35.7612C53.4008 35.8009 53.2764 35.8208 53.1451 35.8208C52.9296 35.8208 52.7458 35.7695 52.5939 35.6669C52.4428 35.5635 52.3342 35.4164 52.2682 35.2255C52.203 35.0346 52.1919 34.8071 52.2348 34.543C52.2785 34.2861 52.3621 34.0658 52.4853 33.8821C52.6094 33.6975 52.7606 33.5564 52.9387 33.4585C53.1177 33.3599 53.311 33.3106 53.5186 33.3106C53.6498 33.3106 53.7699 33.3293 53.8789 33.3667C53.9878 33.4032 54.0817 33.4573 54.1604 33.5289C54.24 33.5997 54.3012 33.6864 54.3442 33.789C54.3871 33.8908 54.4082 34.0073 54.4074 34.1386ZM54.5325 35.7874H54.1412L55.4261 33.344H55.8521L56.3257 35.7874H55.9344L55.5777 33.7878H55.5586L54.5325 35.7874ZM54.7568 34.8306H56.0263L55.9738 35.1408H54.7043L54.7568 34.8306ZM56.4434 35.7874L56.849 33.344H57.72C57.9093 33.344 58.0608 33.3766 58.1746 33.4418C58.2891 33.5062 58.3678 33.5961 58.4108 33.7115C58.4545 33.826 58.4641 33.9588 58.4394 34.1099C58.414 34.2595 58.3603 34.3907 58.2784 34.5037C58.1972 34.6166 58.0887 34.7049 57.9526 34.7685C57.8174 34.8314 57.6552 34.8628 57.4659 34.8628H56.8061L56.861 34.5454H57.4873C57.6074 34.5454 57.7077 34.5283 57.788 34.4941C57.8683 34.4599 57.9312 34.4102 57.9765 34.345C58.0226 34.2798 58.0529 34.2014 58.0672 34.1099C58.0823 34.0169 58.0779 33.9369 58.0541 33.8701C58.0302 33.8025 57.9837 33.7508 57.9145 33.715C57.8453 33.6784 57.7502 33.6602 57.6293 33.6602H57.1664L56.8121 35.7874H56.4434ZM57.8321 34.685L58.2533 35.7874H57.8333L57.4229 34.685H57.8321ZM58.3835 35.7874L58.7891 33.344H60.3211L60.2686 33.6613H59.1053L58.9812 34.4058H60.0645L60.0121 34.722H58.9287L58.8047 35.4701H59.9822L59.9297 35.7874H58.3835ZM60.8266 35.7874L61.2323 33.344H62.7475L62.695 33.6613H61.5485L61.4244 34.4058H62.4624L62.4099 34.722H61.3719L61.1953 35.7874H60.8266ZM64.8818 34.5896C64.8388 34.8465 64.7553 35.0668 64.6312 35.2505C64.5079 35.4343 64.3568 35.5754 64.1779 35.6741C63.9997 35.7719 63.8072 35.8208 63.6004 35.8208C63.3849 35.8208 63.2007 35.7695 63.048 35.6669C62.8961 35.5635 62.7871 35.4168 62.7211 35.2267C62.6551 35.0358 62.644 34.8083 62.6877 34.5442C62.7306 34.2873 62.8138 34.067 62.9371 33.8833C63.0611 33.6987 63.2127 33.5572 63.3916 33.4585C63.5714 33.3599 63.7654 33.3106 63.9738 33.3106C64.1878 33.3106 64.3703 33.3623 64.5215 33.4657C64.6734 33.5683 64.7823 33.7154 64.8484 33.9071C64.9144 34.098 64.9255 34.3255 64.8818 34.5896ZM64.5227 34.5442C64.5553 34.3494 64.5513 34.1855 64.5107 34.0527C64.471 33.9191 64.4029 33.818 64.3067 33.7496C64.2105 33.6812 64.0943 33.647 63.9583 33.647C63.8136 33.647 63.678 33.6836 63.5515 33.7568C63.4258 33.83 63.3184 33.9366 63.2294 34.0765C63.1403 34.2165 63.0794 34.3875 63.0468 34.5896C63.0134 34.7844 63.017 34.9483 63.0576 35.0811C63.0981 35.2139 63.1665 35.3146 63.2628 35.383C63.3598 35.4506 63.4763 35.4844 63.6123 35.4844C63.7563 35.4844 63.8911 35.4482 64.0168 35.3758C64.1433 35.3026 64.251 35.1964 64.3401 35.0573C64.4292 34.9173 64.49 34.7463 64.5227 34.5442ZM64.907 35.7874L65.3126 33.344H66.1836C66.3729 33.344 66.5244 33.3766 66.6381 33.4418C66.7527 33.5062 66.8314 33.5961 66.8744 33.7115C66.9181 33.826 66.9277 33.9588 66.903 34.1099C66.8775 34.2595 66.8239 34.3907 66.7419 34.5037C66.6608 34.6166 66.5522 34.7049 66.4162 34.7685C66.281 34.8314 66.1187 34.8628 65.9294 34.8628H65.2697L65.3246 34.5454H65.9509C66.071 34.5454 66.1712 34.5283 66.2516 34.4941C66.3319 34.4599 66.3947 34.4102 66.4401 34.345C66.4862 34.2798 66.5164 34.2014 66.5308 34.1099C66.5459 34.0169 66.5415 33.9369 66.5176 33.8701C66.4938 33.8025 66.4472 33.7508 66.378 33.715C66.3088 33.6784 66.2138 33.6602 66.0929 33.6602H65.63L65.2756 35.7874H64.907ZM66.2957 34.685L66.7169 35.7874H66.2969L65.8865 34.685H66.2957ZM67.7074 35.7874H67.3161L68.6011 33.344H69.027L69.5006 35.7874H69.1093L68.7526 33.7878H68.7335L67.7074 35.7874ZM67.9317 34.8306H69.2012L69.1487 35.1408H67.8792L67.9317 34.8306ZM69.6183 35.7874L70.024 33.344H70.3926L70.0395 35.4701H71.1466L71.0942 35.7874H69.6183ZM71.2795 35.7874L71.6852 33.344H72.0538L71.7007 35.4701H72.8079L72.7554 35.7874H71.2795ZM73.4335 35.4534L73.3917 35.5834C73.3639 35.6788 73.3273 35.7783 73.282 35.8817C73.2374 35.9851 73.1929 36.0813 73.1483 36.1704C73.1038 36.2603 73.0684 36.3315 73.0422 36.384H72.7892C72.8067 36.3346 72.831 36.2682 72.862 36.1847C72.8938 36.1012 72.9272 36.0077 72.9622 35.9043C72.9972 35.8009 73.0278 35.6951 73.0541 35.587L73.0899 35.4534H73.4335ZM76.6659 33.344L76.2602 35.7874H75.9214L74.9776 33.9954H74.9562L74.6567 35.7874H74.288L74.6937 33.344H75.0349L75.9798 35.1384H76.0025L76.3008 33.344H76.6659ZM78.8845 34.5896C78.8416 34.8465 78.7581 35.0668 78.634 35.2505C78.5107 35.4343 78.3596 35.5754 78.1806 35.6741C78.0025 35.7719 77.81 35.8208 77.6032 35.8208C77.3876 35.8208 77.2035 35.7695 77.0508 35.6669C76.8989 35.5635 76.7899 35.4168 76.7239 35.2267C76.6579 35.0358 76.6467 34.8083 76.6905 34.5442C76.7334 34.2873 76.8165 34.067 76.9398 33.8833C77.0639 33.6987 77.2154 33.5572 77.3944 33.4585C77.5741 33.3599 77.7682 33.3106 77.9766 33.3106C78.1906 33.3106 78.3731 33.3623 78.5242 33.4657C78.6761 33.5683 78.7851 33.7154 78.8511 33.9071C78.9171 34.098 78.9283 34.3255 78.8845 34.5896ZM78.5254 34.5442C78.558 34.3494 78.5541 34.1855 78.5135 34.0527C78.4737 33.9191 78.4057 33.818 78.3095 33.7496C78.2132 33.6812 78.0971 33.647 77.9611 33.647C77.8163 33.647 77.6807 33.6836 77.5543 33.7568C77.4286 33.83 77.3212 33.9366 77.2321 34.0765C77.143 34.2165 77.0822 34.3875 77.0496 34.5896C77.0162 34.7844 77.0198 34.9483 77.0603 35.0811C77.1009 35.2139 77.1693 35.3146 77.2655 35.383C77.3626 35.4506 77.4791 35.4844 77.6151 35.4844C77.7591 35.4844 77.8939 35.4482 78.0196 35.3758C78.146 35.3026 78.2538 35.1964 78.3429 35.0573C78.432 34.9173 78.4928 34.7463 78.5254 34.5442ZM81.8854 34.5896C81.8425 34.8465 81.759 35.0668 81.6349 35.2505C81.5116 35.4343 81.3605 35.5754 81.1815 35.6741C81.0034 35.7719 80.8109 35.8208 80.6041 35.8208C80.3885 35.8208 80.2044 35.7695 80.0517 35.6669C79.8998 35.5635 79.7908 35.4168 79.7248 35.2267C79.6588 35.0358 79.6476 34.8083 79.6914 34.5442C79.7343 34.2873 79.8174 34.067 79.9407 33.8833C80.0648 33.6987 80.2163 33.5572 80.3953 33.4585C80.575 33.3599 80.7691 33.3106 80.9775 33.3106C81.1915 33.3106 81.374 33.3623 81.5251 33.4657C81.6771 33.5683 81.786 33.7154 81.852 33.9071C81.9181 34.098 81.9292 34.3255 81.8854 34.5896ZM81.5263 34.5442C81.5589 34.3494 81.555 34.1855 81.5144 34.0527C81.4746 33.9191 81.4066 33.818 81.3104 33.7496C81.2141 33.6812 81.098 33.647 80.962 33.647C80.8172 33.647 80.6816 33.6836 80.5552 33.7568C80.4295 33.83 80.3221 33.9366 80.233 34.0765C80.1439 34.2165 80.0831 34.3875 80.0505 34.5896C80.0171 34.7844 80.0207 34.9483 80.0612 35.0811C80.1018 35.2139 80.1702 35.3146 80.2664 35.383C80.3635 35.4506 80.48 35.4844 80.616 35.4844C80.76 35.4844 80.8948 35.4482 81.0205 35.3758C81.1469 35.3026 81.2547 35.1964 81.3438 35.0573C81.4329 34.9173 81.4937 34.7463 81.5263 34.5442ZM84.2885 33.344L83.8828 35.7874H83.544L82.6003 33.9954H82.5788L82.2793 35.7874H81.9107L82.3163 33.344H82.6575L83.6024 35.1384H83.6251L83.9234 33.344H84.2885ZM84.1854 35.7874L84.5911 33.344H86.123L86.0705 33.6613H84.9072L84.7831 34.4058H85.8665L85.814 34.722H84.7306L84.6066 35.4701H85.7841L85.7316 35.7874H84.1854ZM86.6285 35.7874L87.0342 33.344H87.929C88.1024 33.344 88.2412 33.3726 88.3454 33.4299C88.4504 33.4864 88.5228 33.5631 88.5625 33.6602C88.6023 33.7564 88.6118 33.865 88.5912 33.9859C88.5745 34.0877 88.5415 34.1732 88.4921 34.2424C88.4436 34.3116 88.3848 34.3673 88.3156 34.4094C88.2464 34.4516 88.1736 34.4822 88.0972 34.5013L88.0925 34.5251C88.172 34.5291 88.2464 34.5554 88.3156 34.6039C88.3856 34.6516 88.4388 34.7196 88.4754 34.8079C88.512 34.8962 88.5204 35.0036 88.5005 35.13C88.479 35.2549 88.4305 35.3671 88.3549 35.4665C88.2802 35.5651 88.1772 35.6434 88.0459 35.7015C87.9147 35.7588 87.7544 35.7874 87.5651 35.7874H86.6285ZM87.0497 35.4712H87.5818C87.7584 35.4712 87.8904 35.437 87.9779 35.3686C88.0662 35.3002 88.1195 35.2147 88.1378 35.1121C88.1497 35.035 88.1414 34.9642 88.1127 34.8998C88.0849 34.8353 88.038 34.784 87.972 34.7459C87.9067 34.7077 87.8248 34.6886 87.7262 34.6886H87.1809L87.0497 35.4712ZM87.2299 34.4011H87.7226C87.8053 34.4011 87.8825 34.3851 87.9541 34.3533C88.0264 34.3215 88.0865 34.2766 88.1342 34.2185C88.1827 34.1605 88.213 34.0924 88.2249 34.0145C88.2424 33.9127 88.2213 33.828 88.1617 33.7604C88.1028 33.692 88.0006 33.6578 87.855 33.6578H87.3516L87.2299 34.4011ZM88.5916 35.7874L88.9973 33.344H90.5292L90.4767 33.6613H89.3134L89.1894 34.4058H90.2727L90.2202 34.722H89.1369L89.0128 35.4701H90.1903L90.1378 35.7874H88.5916ZM90.3808 35.7874L90.7864 33.344H91.1551L90.9785 34.4058H92.1967L92.3732 33.344H92.7431L92.3374 35.7874H91.9676L92.1442 34.722H90.926L90.7495 35.7874H90.3808ZM93.4135 33.344L93.0078 35.7874H92.6392L93.0448 33.344H93.4135ZM95.6873 33.344L95.2817 35.7874H94.9428L93.9991 33.9954H93.9776L93.6782 35.7874H93.3095L93.7152 33.344H94.0564L95.0013 35.1384H95.024L95.3222 33.344H95.6873ZM96.386 35.7874H95.5843L95.9899 33.344H96.7953C97.0355 33.344 97.2339 33.3941 97.3906 33.4943C97.5473 33.5937 97.6571 33.7361 97.7199 33.9214C97.7827 34.106 97.7927 34.3267 97.7497 34.5836C97.7084 34.8349 97.6272 35.0505 97.5063 35.2302C97.3862 35.4092 97.2315 35.5468 97.0422 35.6431C96.8529 35.7393 96.6342 35.7874 96.386 35.7874ZM96.0078 35.4653H96.4015C96.5877 35.4653 96.7487 35.4291 96.8847 35.3567C97.0215 35.2843 97.1325 35.1793 97.2176 35.0417C97.3027 34.9041 97.3616 34.7367 97.3942 34.5395C97.426 34.3517 97.4232 34.1931 97.3858 34.0634C97.3484 33.933 97.2761 33.8343 97.1687 33.7675C97.0613 33.6999 96.9185 33.6661 96.7404 33.6661H96.3049L96.0078 35.4653Z" fill="#9199A6"/>
</g>
<defs>
<clipPath id="clip0_199_590">
<rect width="98.3052" height="36.3735" fill="white"/>
</clipPath>
</defs>
</svg>
