<svg width="176" height="41" viewBox="0 0 176 41" fill="none" xmlns="http://www.w3.org/2000/svg">
<path fillRule="evenodd" clipRule="evenodd" d="M2.23617 28.5958H11.6542L23.6263 34.1591L20.3388 28.3537C22.0078 27.4253 23.4095 25.9803 24.2765 24.1162C26.4585 19.4198 24.421 13.8348 19.7247 11.6528C16.0218 9.93321 11.7662 10.8363 9.06033 13.5999H2.97676C2.51074 13.5999 2.13143 13.9757 2.13143 14.4417C2.13143 14.9041 2.51074 15.2834 2.97676 15.2834H6.93975C7.10593 15.2834 7.26489 15.3701 7.35159 15.5146C7.44191 15.6591 7.44911 15.8362 7.37324 15.9879L7.36967 15.9915C7.28658 16.1576 7.12038 16.2624 6.93613 16.2624C5.89932 16.2624 2.43125 16.2624 0.574388 16.2624C2.42764 9.61526 8.53292 4.73108 15.7689 4.73108C24.4716 4.73108 31.5378 11.7973 31.5378 20.5C31.5378 29.2027 24.4716 36.2689 15.7689 36.2689C10.0249 36.2689 4.99256 33.191 2.23617 28.5958ZM0.242015 23.2708H6.60381C6.79166 23.2708 6.95781 23.3864 7.02645 23.5598C7.02645 23.5598 7.02645 23.5598 7.02645 23.5635C7.08425 23.7116 7.06256 23.8814 6.96864 24.0078C6.87471 24.1378 6.71937 24.2101 6.56041 24.1993C5.9535 24.1631 5.2057 24.1162 5.2057 24.1162C4.74329 24.1162 4.36398 24.4919 4.36398 24.9579C4.36398 25.4239 4.74329 25.7996 5.2057 25.7996C5.2057 25.7996 7.42744 25.8936 8.14996 25.9225C8.28723 25.9297 8.4209 25.9947 8.5076 26.1031C8.51121 26.1067 8.51483 26.1103 8.51483 26.1139C8.63405 26.262 8.65935 26.4607 8.57988 26.6305C8.49679 26.8039 8.32701 26.9087 8.13915 26.9087H1.35833C0.84896 25.7635 0.469607 24.5424 0.242015 23.2708ZM0.205898 17.9459H6.04745C6.19196 17.9459 6.32925 18.0109 6.42318 18.1193C6.5171 18.2313 6.5532 18.3758 6.53153 18.5203C6.48818 18.7551 6.28588 18.9249 6.04745 18.9249C5.29965 18.9249 3.81848 18.9249 3.81848 18.9249C3.35245 18.9249 2.97676 19.3006 2.97676 19.7666C2.97676 20.229 3.35245 20.6083 3.81848 20.6083H5.94991C6.19556 20.6083 6.40508 20.7962 6.43036 21.0455C6.43036 21.0491 6.43036 21.0527 6.43036 21.0563C6.4412 21.1936 6.39786 21.3273 6.30755 21.4284C6.21362 21.5296 6.08719 21.5874 5.94991 21.5874H0.036117C0.0108289 21.2261 0 20.8649 0 20.5C0 19.6294 0.0686196 18.7768 0.205898 17.9459Z" fill="#9199A6"/>
<path d="M46.4013 23.9811V15.4837H49.2882V30H46.4013V28.0391C45.4481 29.5915 43.9229 30.3541 42.0709 30.3541C39.1023 30.3541 37.2503 28.611 37.2503 25.1794V15.4837H40.1645V24.5802C40.1645 26.6773 41.036 27.9301 42.9697 27.9301C45.094 27.9301 46.4013 25.9965 46.4013 23.9811ZM52.836 13.6862V10.3908H55.7501V13.6862H52.836ZM52.836 30V15.4837H55.7501V30H52.836ZM59.2724 13.6862V10.3908H62.1865V13.6862H59.2724ZM59.2724 30V15.4837H62.1865V30H59.2724ZM77.9917 20.5495H75.0776C74.7235 18.4796 73.389 17.5536 71.7005 17.5536C69.2765 17.5536 67.9693 19.4056 67.9693 22.7555C67.9693 26.0509 69.331 27.9301 71.7822 27.9301C73.5252 27.9301 74.7508 26.9769 75.1865 25.1249H78.0735C77.447 28.7472 74.9414 30.3541 71.7277 30.3541C67.5335 30.3541 65.0007 27.4671 65.0007 22.7555C65.0007 17.826 67.588 15.1025 71.7005 15.1025C74.9414 15.1025 77.5015 16.9272 77.9917 20.5495ZM80.7891 30V10.3908H83.7032V21.6389L89.477 15.4837H92.9631L86.6991 21.9384L93.3444 30H89.7222L83.7032 22.7555V30H80.7891ZM100.374 30.3541C96.1522 30.3541 93.5921 27.4944 93.5921 22.7555C93.5921 17.826 96.2339 15.1025 100.374 15.1025C104.595 15.1025 107.155 18.0166 107.155 22.7555C107.155 27.6578 104.513 30.3541 100.374 30.3541ZM100.374 27.9029C102.852 27.9029 104.186 26.1054 104.186 22.7555C104.186 19.4328 102.825 17.5536 100.374 17.5536C97.9224 17.5536 96.5607 19.3784 96.5607 22.7555C96.5607 26.0509 97.9224 27.9029 100.374 27.9029ZM112.906 35.9917H109.992V15.4837H112.906V17.2268C113.832 15.865 115.194 15.1025 116.855 15.1025C120.696 15.1025 123.011 17.9621 123.011 22.701C123.011 27.6306 120.641 30.3541 116.855 30.3541C115.194 30.3541 113.832 29.6732 112.906 28.3387V35.9917ZM116.501 17.5536C114.159 17.5536 112.906 19.3784 112.906 22.701C112.906 26.0237 114.214 27.9029 116.501 27.9029C118.789 27.9029 120.042 26.0509 120.042 22.701C120.042 19.4056 118.735 17.5536 116.501 17.5536ZM128.159 19.2966C128.159 23.0006 137.446 19.8958 137.446 25.8058C137.446 28.5565 134.968 30.3541 131.454 30.3541C127.941 30.3541 125.463 28.72 124.918 25.2611H127.832C128.132 27.0859 129.493 28.0936 131.536 28.0936C133.497 28.0936 134.532 27.222 134.532 25.9965C134.532 22.3742 125.381 25.4245 125.381 19.4601C125.381 17.1995 127.151 15.1025 130.828 15.1025C134.069 15.1025 136.466 16.6004 136.928 20.2226H134.014C133.688 18.18 132.544 17.4174 130.692 17.4174C129.085 17.4174 128.159 18.2072 128.159 19.2966ZM140.318 30V11.4802H143.368V19.2422H152.355V11.4802H155.406V30H152.355V21.7206H143.368V30H140.318ZM159.387 30V11.4802H166.332C170.336 11.4802 172.869 13.5501 172.869 16.8183C172.869 18.9154 171.915 20.386 170.254 21.2031C171.344 21.775 171.943 22.7827 172.351 24.4441L173.74 30H170.526L169.41 25.0432C168.92 22.9189 168.103 22.5104 166.06 22.5104H162.438V30H159.387ZM166.251 13.9313H162.438V20.0592H166.196C168.457 20.0592 169.737 18.8609 169.737 16.9817C169.737 15.1297 168.457 13.9313 166.251 13.9313Z" fill="#9199A6"/>
</svg>
