<svg width="80" height="38" viewBox="0 0 80 38" fill="none" xmlns="http://www.w3.org/2000/svg">
<g clip-path="url(#clip0_199_645)">
<path d="M7.77112 4.64276L16.9953 13.9265L17.6772 11.3256L9.40419 2.99915L7.77112 4.64276Z" fill="#9199A6"/>
<path d="M15.0992 12.0292L16.9868 13.929L19.2124 5.59975L16.9703 5.00244L15.0992 12.0292Z" fill="#9199A6"/>
<path d="M19.4253 16.9178L21.9995 16.2237L25.0383 4.83908L22.8027 4.23871L19.4253 16.9178Z" fill="#9199A6"/>
<path d="M20.1164 14.3271L19.4253 16.9227L27.6955 14.6945L27.0996 12.4443L20.1164 14.3271Z" fill="#9199A6"/>
<path d="M18.0664 20.5395L19.9597 22.445L31.2657 19.3925L30.6645 17.1438L18.0664 20.5395Z" fill="#9199A6"/>
<path d="M18.0565 20.5406L24.1152 26.6384L25.7555 24.9874L20.6448 19.8438L18.0565 20.5406Z" fill="#9199A6"/>
<path d="M13.5837 23.763L21.8567 32.0894L23.4898 30.4458L14.2656 21.1621L13.5837 23.763Z" fill="#9199A6"/>
<path d="M12.0531 29.4884L14.2826 30.0897L16.1531 23.0634L14.2706 21.159L12.0531 29.4884Z" fill="#9199A6"/>
<path d="M9.24976 18.8698L6.22144 30.2446L8.45241 30.8462L11.8289 18.1637L9.24976 18.8698Z" fill="#9199A6"/>
<path d="M3.55896 20.4012L4.15642 22.6453L11.1383 20.7624L11.8359 18.1691L3.55896 20.4012Z" fill="#9199A6"/>
<path d="M0.00012207 15.6936L0.601249 17.9514L13.2029 14.5527L11.3024 12.6454L0.00012207 15.6936Z" fill="#9199A6"/>
<path d="M5.50354 10.1019L10.6142 15.2456L13.2025 14.5487L7.14388 8.45099L5.50354 10.1019Z" fill="#9199A6"/>
<path d="M39.6952 9.86138H38.2954L37.7693 8.31257H34.801L34.2749 9.86138H32.8751L35.347 2.86684H37.2233L39.6952 9.86138ZM36.1908 4.24576L35.1981 7.15349H37.3722L36.3894 4.24576H36.1908ZM43.0473 9.9613C42.7097 9.9613 42.4119 9.90135 42.1538 9.78145C41.9023 9.65486 41.6972 9.48836 41.5383 9.28184H41.4887L41.3894 9.86138H40.347V2.86684H41.5582V5.33494H41.6078C41.7534 5.15505 41.9486 5.00517 42.1935 4.88526C42.445 4.76535 42.7296 4.7054 43.0473 4.7054C43.4775 4.7054 43.868 4.81532 44.2187 5.03515C44.5761 5.25495 44.8573 5.56476 45.0625 5.96441C45.2677 6.3641 45.3703 6.82043 45.3703 7.33338C45.3703 7.84628 45.2677 8.3026 45.0625 8.7023C44.8573 9.10195 44.5761 9.41175 44.2187 9.63156C43.868 9.85137 43.4775 9.9613 43.0473 9.9613ZM42.8587 8.83216C43.2293 8.83216 43.537 8.69561 43.7819 8.4225C44.0334 8.14274 44.1591 7.77969 44.1591 7.33338C44.1591 6.88702 44.0334 6.52734 43.7819 6.25418C43.537 5.97442 43.2293 5.83455 42.8587 5.83455C42.488 5.83455 42.177 5.97442 41.9255 6.25418C41.6806 6.52734 41.5582 6.88702 41.5582 7.33338C41.5582 7.77969 41.6806 8.14274 41.9255 8.4225C42.177 8.69561 42.488 8.83216 42.8587 8.83216ZM48.3614 9.9613C47.9775 9.9613 47.6334 9.87472 47.329 9.70152C47.0312 9.52163 46.7962 9.27183 46.6241 8.95211C46.4587 8.63234 46.3759 8.26264 46.3759 7.84296V4.80532H47.5871V7.6831C47.5871 8.00951 47.6897 8.2793 47.8948 8.49246C48.1 8.69898 48.3581 8.80221 48.6691 8.80221C48.9934 8.80221 49.2615 8.69561 49.4733 8.48244C49.6851 8.26264 49.7909 7.99617 49.7909 7.6831V4.80532H51.0021V9.86138H49.9498L49.8505 9.37179H49.8009C49.6685 9.53165 49.4733 9.67153 49.2152 9.79142C48.9637 9.90467 48.6791 9.9613 48.3614 9.9613ZM51.1585 11.8598V10.7307H51.9428C52.0552 10.7307 52.1382 10.7041 52.1908 10.6508C52.2439 10.5975 52.2702 10.5142 52.2702 10.401V4.80532H53.4815V10.6707C53.4815 11.0371 53.3691 11.3269 53.1437 11.5401C52.9189 11.7532 52.611 11.8598 52.2207 11.8598H51.1585ZM53.531 3.94599H52.2305V2.80688H53.531V3.94599ZM56.3304 9.9613C55.9664 9.9613 55.6488 9.89471 55.3775 9.76147C55.1063 9.6216 54.8944 9.43506 54.7422 9.20191C54.5968 8.96207 54.5236 8.69561 54.5236 8.40251C54.5236 7.89626 54.6958 7.49656 55.0403 7.20347C55.3842 6.90368 55.8937 6.75379 56.5687 6.75379H57.7701V6.63389C57.7701 6.36078 57.684 6.14093 57.5118 5.97442C57.3463 5.80122 57.1215 5.7146 56.8368 5.7146C56.579 5.7146 56.3702 5.77455 56.2113 5.89449C56.0525 6.01439 55.9535 6.15426 55.9138 6.31412H54.7123C54.7391 6.03437 54.8381 5.77123 55.0104 5.52474C55.1821 5.27831 55.4239 5.08178 55.7349 4.93523C56.0458 4.78201 56.4135 4.7054 56.8368 4.7054C57.2736 4.7054 57.6541 4.78867 57.9785 4.95521C58.3028 5.11508 58.5508 5.34158 58.7231 5.63467C58.8953 5.92776 58.9814 6.26087 58.9814 6.63389V9.86138H57.929L57.8294 9.36177H57.7799C57.6675 9.51499 57.4819 9.65486 57.2241 9.78145C56.9657 9.90135 56.6682 9.9613 56.3304 9.9613ZM56.5393 8.97209C56.9229 8.97209 57.2241 8.86548 57.4422 8.65232C57.6608 8.43916 57.7701 8.14939 57.7701 7.78301V7.63312H56.6878C56.3702 7.63312 56.1319 7.69638 55.9731 7.82297C55.821 7.94287 55.7447 8.1061 55.7447 8.31257C55.7447 8.51244 55.8143 8.6723 55.9535 8.7922C56.0922 8.91214 56.2876 8.97209 56.5393 8.97209Z" fill="#9199A6"/>
<path d="M36.4787 19.8547H35.1882V14.1091H33.1233V12.8601H38.5436V14.1091H36.4787V19.8547ZM40.8841 19.9546C40.4076 19.9546 39.9741 19.8413 39.5836 19.6149C39.1931 19.3884 38.8854 19.0753 38.6604 18.6756C38.442 18.2759 38.3328 17.8263 38.3328 17.3267C38.3328 16.827 38.442 16.3774 38.6604 15.9777C38.8854 15.578 39.1931 15.2649 39.5836 15.0384C39.9741 14.8119 40.4076 14.6987 40.8841 14.6987C41.3474 14.6987 41.7676 14.8086 42.1449 15.0284C42.5221 15.2482 42.8166 15.5513 43.0284 15.9377C43.2468 16.3174 43.356 16.7437 43.356 17.2167C43.356 17.4365 43.3394 17.6064 43.3064 17.7263H39.5439C39.5902 18.0794 39.7392 18.3692 39.9906 18.5957C40.2421 18.8155 40.54 18.9254 40.8841 18.9254C41.1356 18.9254 41.3573 18.8721 41.5493 18.7655C41.7478 18.6589 41.8901 18.529 41.9761 18.3758H43.217C43.0781 18.7955 42.8067 19.1652 42.403 19.485C42.0059 19.798 41.4996 19.9546 40.8841 19.9546ZM42.1449 16.897C42.1118 16.5573 41.9794 16.2741 41.7478 16.0476C41.5161 15.8211 41.2283 15.7079 40.8841 15.7079C40.5201 15.7079 40.219 15.8211 39.9807 16.0476C39.7425 16.2674 39.5968 16.5506 39.5439 16.897H42.1449ZM46.633 19.9546C46.1565 19.9546 45.7231 19.8413 45.3325 19.6149C44.9421 19.3884 44.6344 19.0753 44.4093 18.6756C44.1909 18.2759 44.0817 17.8263 44.0817 17.3267C44.0817 16.827 44.1909 16.3774 44.4093 15.9777C44.6344 15.578 44.9421 15.2649 45.3325 15.0384C45.7231 14.8119 46.1565 14.6987 46.633 14.6987C47.0765 14.6987 47.4669 14.7886 47.8045 14.9685C48.142 15.1483 48.4134 15.3848 48.6185 15.6779C48.8237 15.971 48.9593 16.2908 49.0255 16.6372H47.7945C47.7217 16.404 47.5861 16.2109 47.3875 16.0576C47.1956 15.9044 46.9441 15.8278 46.633 15.8278C46.3882 15.8278 46.1632 15.8911 45.958 16.0176C45.7595 16.1442 45.6006 16.3207 45.4815 16.5472C45.3623 16.7737 45.3028 17.0335 45.3028 17.3267C45.3028 17.6198 45.3623 17.8795 45.4815 18.106C45.6006 18.3325 45.7595 18.509 45.958 18.6356C46.1632 18.7622 46.3882 18.8255 46.633 18.8255C46.9507 18.8255 47.2055 18.7489 47.3974 18.5957C47.596 18.4358 47.7284 18.2293 47.7945 17.9761H49.0255C48.9593 18.3358 48.8237 18.6656 48.6185 18.9654C48.4134 19.2651 48.142 19.5049 47.8045 19.6848C47.4669 19.8647 47.0765 19.9546 46.633 19.9546ZM50.032 19.8547V12.8601H51.2431V15.2782H51.2928C51.4053 15.1317 51.5839 14.9984 51.8288 14.8785C52.0804 14.7586 52.3615 14.6987 52.6729 14.6987C53.0566 14.6987 53.3974 14.7886 53.6949 14.9685C53.9997 15.1417 54.2343 15.3882 54.3998 15.7079C54.5721 16.0276 54.6582 16.3973 54.6582 16.817V19.8547H53.4469V16.9769C53.4469 16.6505 53.3443 16.3841 53.1391 16.1775C52.9338 15.9644 52.676 15.8578 52.3651 15.8578C52.0474 15.8578 51.7793 15.9644 51.5608 16.1775C51.349 16.3907 51.2431 16.6572 51.2431 16.9769V19.8547H50.032Z" fill="#9199A6"/>
<path d="M36.697 29.9468C36.0815 29.9468 35.5156 29.7935 34.9994 29.4871C34.4898 29.1807 34.0861 28.7544 33.7883 28.2081C33.4905 27.6619 33.3416 27.0424 33.3416 26.3496C33.3416 25.6568 33.4905 25.0372 33.7883 24.491C34.0861 23.9448 34.4898 23.5184 34.9994 23.212C35.5156 22.9056 36.0815 22.7524 36.697 22.7524C37.2595 22.7524 37.7592 22.8756 38.196 23.1221C38.6394 23.3619 38.9968 23.6783 39.2681 24.0713C39.5461 24.4577 39.7348 24.874 39.834 25.3203H38.5236C38.4111 24.954 38.1927 24.6442 37.8684 24.3911C37.5507 24.1313 37.1603 24.0014 36.697 24.0014C36.3198 24.0014 35.9723 24.1013 35.6546 24.3011C35.3369 24.4943 35.0854 24.7708 34.9002 25.1305C34.7214 25.4836 34.6321 25.8899 34.6321 26.3496C34.6321 26.8092 34.7214 27.2189 34.9002 27.5786C35.0854 27.9317 35.3369 28.2081 35.6546 28.408C35.9723 28.6011 36.3198 28.6977 36.697 28.6977C37.1735 28.6977 37.5706 28.5678 37.8883 28.308C38.206 28.0416 38.4177 27.7152 38.5236 27.3288H39.834C39.7414 27.7818 39.5594 28.2081 39.288 28.6078C39.0167 29.0075 38.6593 29.3306 38.2159 29.5771C37.779 29.8235 37.2728 29.9468 36.697 29.9468ZM43.075 29.9468C42.5918 29.9468 42.155 29.8335 41.7646 29.607C41.3807 29.3805 41.0763 29.0674 40.8513 28.6677C40.6329 28.268 40.5237 27.8184 40.5237 27.3188C40.5237 26.8192 40.6329 26.3696 40.8513 25.9699C41.0763 25.5702 41.3807 25.2571 41.7646 25.0306C42.155 24.8041 42.5918 24.6908 43.075 24.6908C43.5581 24.6908 43.9916 24.8041 44.3755 25.0306C44.7659 25.2571 45.0704 25.5702 45.2888 25.9699C45.5138 26.3696 45.6263 26.8192 45.6263 27.3188C45.6263 27.8184 45.5138 28.268 45.2888 28.6677C45.0704 29.0674 44.7659 29.3805 44.3755 29.607C43.9916 29.8335 43.5581 29.9468 43.075 29.9468ZM43.075 28.8077C43.4522 28.8077 43.7666 28.6711 44.0181 28.3979C44.2762 28.1182 44.4052 27.7585 44.4052 27.3188C44.4052 27.0257 44.3457 26.7659 44.2266 26.5394C44.1074 26.3129 43.9453 26.1364 43.7401 26.0098C43.5416 25.8832 43.3198 25.82 43.075 25.82C42.8301 25.82 42.6051 25.8832 42.3999 26.0098C42.1948 26.1364 42.0326 26.3129 41.9135 26.5394C41.7944 26.7659 41.7348 27.0257 41.7348 27.3188C41.7348 27.6119 41.7944 27.8717 41.9135 28.0982C42.0326 28.3247 42.1948 28.5012 42.3999 28.6278C42.6051 28.7477 42.8301 28.8077 43.075 28.8077ZM46.6279 29.8468V24.7908H47.6702L47.7695 25.2704H47.8192C47.9449 25.1238 48.1335 24.9906 48.385 24.8707C48.6365 24.7508 48.931 24.6908 49.2686 24.6908C49.6524 24.6908 49.9933 24.7808 50.291 24.9606C50.5955 25.1338 50.8305 25.3803 50.9959 25.7001C51.168 26.0198 51.254 26.3895 51.254 26.8092V29.8468H50.0429V26.9691C50.0429 26.6427 49.9403 26.3762 49.7351 26.1697C49.53 25.9565 49.2719 25.85 48.9608 25.85C48.6431 25.85 48.3751 25.9565 48.1567 26.1697C47.9449 26.3828 47.839 26.6493 47.839 26.9691V29.8468H46.6279ZM55.2155 29.8468H53.5277L51.8003 24.7908H53.0611L54.2723 28.408H54.4709L55.6821 24.7908H56.9527L55.2155 29.8468ZM59.8177 29.9468C59.3412 29.9468 58.9075 29.8335 58.5172 29.607C58.1268 29.3805 57.819 29.0674 57.5942 28.6677C57.3755 28.268 57.2662 27.8184 57.2662 27.3188C57.2662 26.8192 57.3755 26.3696 57.5942 25.9699C57.819 25.5702 58.1268 25.2571 58.5172 25.0306C58.9075 24.8041 59.3412 24.6908 59.8177 24.6908C60.2807 24.6908 60.701 24.8008 61.0784 25.0206C61.4559 25.2404 61.7503 25.5435 61.9618 25.9299C62.1804 26.3096 62.2897 26.7359 62.2897 27.2089C62.2897 27.4287 62.2732 27.5986 62.2397 27.7185H58.4775C58.5239 28.0715 58.6729 28.3613 58.924 28.5878C59.1757 28.8077 59.4737 28.9175 59.8177 28.9175C60.0693 28.9175 60.291 28.8642 60.4829 28.7577C60.6814 28.6511 60.8237 28.5212 60.9098 28.368H62.1505C62.0118 28.7877 61.74 29.1574 61.3368 29.4771C60.9392 29.7902 60.4334 29.9468 59.8177 29.9468ZM61.0784 26.8891C61.0454 26.5494 60.9129 26.2663 60.6814 26.0398C60.4499 25.8133 60.1616 25.7001 59.8177 25.7001C59.4536 25.7001 59.1525 25.8133 58.9142 26.0398C58.676 26.2596 58.5306 26.5428 58.4775 26.8891H61.0784ZM63.2834 29.8468V24.7908H64.3255L64.425 25.2204H64.4745C64.6731 24.934 64.9778 24.7908 65.3877 24.7908H66.3113V25.9399H65.4672C65.1495 25.9399 64.9082 26.0265 64.7427 26.1997C64.5771 26.3662 64.4946 26.6127 64.4946 26.9391V29.8468H63.2834ZM69.2309 31.9452C68.7013 31.9452 68.2579 31.8453 67.9005 31.6454C67.5499 31.4522 67.2884 31.2124 67.1162 30.926C66.9507 30.6462 66.8615 30.3698 66.8481 30.0967H68.0789C68.1124 30.2965 68.2249 30.4763 68.4167 30.6362C68.6085 30.7961 68.8797 30.876 69.2309 30.876C69.595 30.876 69.8858 30.7695 70.1044 30.5562C70.3225 30.3431 70.4319 30.0633 70.4319 29.7169V29.0075H70.3824C70.2364 29.1673 70.0415 29.3006 69.7966 29.4072C69.5516 29.5071 69.2804 29.5571 68.9824 29.5571C68.5523 29.5571 68.162 29.4538 67.8113 29.2473C67.4669 29.0408 67.1956 28.7544 66.9971 28.388C66.7986 28.0149 66.6991 27.5919 66.6991 27.119C66.6991 26.6526 66.7986 26.2363 66.9971 25.8699C67.1956 25.4969 67.4669 25.2071 67.8113 25.0006C68.162 24.7941 68.5523 24.6908 68.9824 24.6908C69.3 24.6908 69.5815 24.7508 69.8265 24.8707C70.0714 24.984 70.2761 25.1405 70.4417 25.3403H70.4917L70.5907 24.7908H71.6431V29.7169C71.6431 30.3964 71.4281 30.936 70.9975 31.3357C70.5742 31.742 69.9853 31.9452 69.2309 31.9452ZM69.1711 28.4679C69.5284 28.4679 69.8265 28.3413 70.0647 28.0882C70.3097 27.8351 70.4319 27.512 70.4319 27.119C70.4319 26.7259 70.3097 26.4062 70.0647 26.1597C69.8265 25.9066 69.5284 25.78 69.1711 25.78C68.8204 25.78 68.5224 25.9066 68.2775 26.1597C68.0392 26.4128 67.9201 26.7326 67.9201 27.119C67.9201 27.512 68.0392 27.8351 68.2775 28.0882C68.5224 28.3413 68.8204 28.4679 69.1711 28.4679ZM75.1934 29.9468C74.7169 29.9468 74.2833 29.8335 73.8929 29.607C73.5026 29.3805 73.1947 29.0674 72.9699 28.6677C72.7513 28.268 72.6419 27.8184 72.6419 27.3188C72.6419 26.8192 72.7513 26.3696 72.9699 25.9699C73.1947 25.5702 73.5026 25.2571 73.8929 25.0306C74.2833 24.8041 74.7169 24.6908 75.1934 24.6908C75.6565 24.6908 76.0767 24.8008 76.4542 25.0206C76.8316 25.2404 77.1261 25.5435 77.3375 25.9299C77.5561 26.3096 77.6654 26.7359 77.6654 27.2089C77.6654 27.4287 77.6489 27.5986 77.6154 27.7185H73.8532C73.8996 28.0715 74.0486 28.3613 74.2998 28.5878C74.5514 28.8077 74.8495 28.9175 75.1934 28.9175C75.445 28.9175 75.6668 28.8642 75.8586 28.7577C76.0571 28.6511 76.1994 28.5212 76.2855 28.368H77.5262C77.3875 28.7877 77.1157 29.1574 76.7125 29.4771C76.3149 29.7902 75.8091 29.9468 75.1934 29.9468ZM76.4542 26.8891C76.4212 26.5494 76.2886 26.2663 76.0571 26.0398C75.8256 25.8133 75.5373 25.7001 75.1934 25.7001C74.8293 25.7001 74.5282 25.8133 74.29 26.0398C74.0517 26.2596 73.9063 26.5428 73.8532 26.8891H76.4542Z" fill="#9199A6"/>
<path d="M34.4852 36.5358H34.0806V35.5545L33.0979 33.8206H33.5411L34.2463 35.0812H34.3233L35.0286 33.8206H35.4679L34.4852 35.5545V36.5358ZM36.3306 36.5746C36.1508 36.5746 35.9877 36.5319 35.8412 36.4466C35.6948 36.3587 35.5792 36.2384 35.4944 36.0858C35.4122 35.9307 35.3711 35.7548 35.3711 35.5583C35.3711 35.3644 35.4122 35.1911 35.4944 35.0385C35.5792 34.8834 35.6948 34.7632 35.8412 34.6778C35.9877 34.5899 36.1508 34.5459 36.3306 34.5459C36.5105 34.5459 36.6724 34.5899 36.8162 34.6778C36.9627 34.7632 37.077 34.8834 37.1592 35.0385C37.244 35.1911 37.2864 35.3644 37.2864 35.5583C37.2864 35.7548 37.244 35.9307 37.1592 36.0858C37.077 36.2384 36.9627 36.3587 36.8162 36.4466C36.6724 36.5319 36.5105 36.5746 36.3306 36.5746ZM36.3306 36.2177C36.436 36.2177 36.5323 36.1906 36.6197 36.1363C36.7096 36.082 36.7802 36.0044 36.8316 35.9035C36.883 35.8027 36.9087 35.6876 36.9087 35.5583C36.9087 35.429 36.883 35.3152 36.8316 35.217C36.7802 35.1161 36.7096 35.0385 36.6197 34.9843C36.5323 34.93 36.436 34.9028 36.3306 34.9028C36.2253 34.9028 36.1277 34.93 36.0378 34.9843C35.9504 35.0385 35.881 35.1161 35.8297 35.217C35.7783 35.3152 35.7526 35.429 35.7526 35.5583C35.7526 35.6876 35.7783 35.8027 35.8297 35.9035C35.881 36.0044 35.9504 36.082 36.0378 36.1363C36.1277 36.1906 36.2253 36.2177 36.3306 36.2177ZM38.4665 36.5746C38.3174 36.5746 38.1838 36.541 38.0656 36.4737C37.95 36.4039 37.8589 36.3069 37.792 36.1828C37.7278 36.0587 37.6957 35.9165 37.6957 35.7561V34.5847H38.0772V35.7251C38.0772 35.8648 38.1222 35.9811 38.2121 36.0742C38.302 36.1673 38.4138 36.2139 38.5474 36.2139C38.6373 36.2139 38.7195 36.1919 38.794 36.1479C38.8711 36.1039 38.9315 36.0445 38.9752 35.9695C39.0188 35.8945 39.0406 35.813 39.0406 35.7251V34.5847H39.4222V36.5358H39.0946L39.0561 36.3341H39.0368C38.9828 36.3987 38.9057 36.4556 38.8056 36.5048C38.7054 36.5513 38.5923 36.5746 38.4665 36.5746ZM40.5013 36.5358C40.3703 36.5358 40.2675 36.5009 40.193 36.4311C40.1211 36.3587 40.0851 36.2617 40.0851 36.1402V34.9454H39.7768V34.5847H40.0851V34.0184H40.4666V34.5847H40.9098V34.9454H40.4666V36.0626C40.4666 36.1427 40.5064 36.1828 40.5861 36.1828H40.9098V36.5358H40.5013ZM41.3617 36.5358V33.8206H41.7432V34.7864H41.7625C41.8087 34.7244 41.8806 34.6687 41.9783 34.6196C42.0784 34.5705 42.1915 34.5459 42.3174 34.5459C42.4664 34.5459 42.5987 34.5808 42.7143 34.6507C42.8325 34.7179 42.9237 34.8135 42.988 34.9377C43.0547 35.0618 43.0881 35.2041 43.0881 35.3644V36.5358H42.7066V35.3954C42.7066 35.2558 42.6617 35.1394 42.5717 35.0463C42.4818 34.9532 42.3701 34.9067 42.2364 34.9067C42.1466 34.9067 42.063 34.9287 41.986 34.9726C41.9115 35.0166 41.8524 35.0761 41.8087 35.151C41.765 35.226 41.7432 35.3075 41.7432 35.3954V36.5358H41.3617ZM44.0052 36.5358H43.5658V36.0975H44.0052V36.5358Z" fill="#9199A6"/>
<path d="M46.8014 36.5358H46.3967V33.8206H46.8014V36.5358ZM47.3555 36.5358V34.5847H47.6831L47.7216 34.7864H47.7409C47.7897 34.7244 47.8642 34.6687 47.9644 34.6196C48.0646 34.5705 48.1802 34.5459 48.3112 34.5459C48.4602 34.5459 48.5925 34.5808 48.7081 34.6507C48.8263 34.7179 48.9175 34.8135 48.9817 34.9377C49.0486 35.0618 49.0819 35.2041 49.0819 35.3644V36.5358H48.7005V35.3954C48.7005 35.2558 48.6555 35.1394 48.5656 35.0463C48.4756 34.9532 48.3639 34.9067 48.2303 34.9067C48.1404 34.9067 48.0569 34.9287 47.9798 34.9726C47.9053 35.0166 47.8462 35.0761 47.8025 35.151C47.7589 35.226 47.737 35.3075 47.737 35.3954V36.5358H47.3555ZM49.5909 36.5358V34.5847H49.9185L49.9571 34.7864H49.9763C50.0251 34.7244 50.0996 34.6687 50.1998 34.6196C50.3 34.5705 50.4156 34.5459 50.5466 34.5459C50.6957 34.5459 50.828 34.5808 50.9436 34.6507C51.0618 34.7179 51.153 34.8135 51.2172 34.9377C51.284 35.0618 51.3174 35.2041 51.3174 35.3644V36.5358H50.9359V35.3954C50.9359 35.2558 50.8909 35.1394 50.801 35.0463C50.7111 34.9532 50.5993 34.9067 50.4657 34.9067C50.3758 34.9067 50.2923 34.9287 50.2152 34.9726C50.1407 35.0166 50.0816 35.0761 50.038 35.151C49.9943 35.226 49.9725 35.3075 49.9725 35.3954V36.5358H49.5909ZM52.6744 36.5746C52.4944 36.5746 52.3315 36.5319 52.185 36.4466C52.0386 36.3587 51.9226 36.2384 51.838 36.0858C51.7555 35.9307 51.7148 35.7548 51.7148 35.5583C51.7148 35.3644 51.7555 35.1911 51.838 35.0385C51.9226 34.8834 52.0386 34.7632 52.185 34.6778C52.3315 34.5899 52.4944 34.5459 52.6744 34.5459C52.8538 34.5459 53.0157 34.5899 53.1596 34.6778C53.3061 34.7632 53.4205 34.8834 53.5025 35.0385C53.5876 35.1911 53.6299 35.3644 53.6299 35.5583C53.6299 35.7548 53.5876 35.9307 53.5025 36.0858C53.4205 36.2384 53.3061 36.3587 53.1596 36.4466C53.0157 36.5319 52.8538 36.5746 52.6744 36.5746ZM52.6744 36.2177C52.7796 36.2177 52.876 36.1906 52.9631 36.1363C53.0534 36.082 53.124 36.0044 53.1751 35.9035C53.2266 35.8027 53.2524 35.6876 53.2524 35.5583C53.2524 35.429 53.2266 35.3152 53.1751 35.217C53.124 35.1161 53.0534 35.0385 52.9631 34.9843C52.876 34.93 52.7796 34.9028 52.6744 34.9028C52.5687 34.9028 52.4712 34.93 52.3815 34.9843C52.2938 35.0385 52.2247 35.1161 52.1732 35.217C52.1216 35.3152 52.0963 35.429 52.0963 35.5583C52.0963 35.6876 52.1216 35.8027 52.1732 35.9035C52.2247 36.0044 52.2938 36.082 52.3815 36.1363C52.4712 36.1906 52.5687 36.2177 52.6744 36.2177ZM55.0113 36.5358H54.4524L53.7701 34.5847H54.1713L54.6952 36.1014H54.7726L55.2965 34.5847H55.6971L55.0113 36.5358ZM56.5449 36.5746C56.4087 36.5746 56.2881 36.5487 56.1824 36.497C56.0772 36.4427 55.9962 36.3703 55.94 36.2798C55.8833 36.1867 55.8549 36.0833 55.8549 35.9695C55.8549 35.7781 55.9204 35.6256 56.0514 35.5118C56.1824 35.398 56.3778 35.3411 56.6372 35.3411H57.1307V35.2907C57.1307 35.1639 57.0935 35.0631 57.0188 34.9881C56.9471 34.9131 56.8481 34.8756 56.7223 34.8756C56.6011 34.8756 56.5036 34.9041 56.4294 34.961C56.3546 35.0153 56.3108 35.0812 56.2984 35.1588H55.9245C55.9323 35.0528 55.9679 34.9532 56.0323 34.8601C56.0963 34.7645 56.1875 34.6882 56.3056 34.6313C56.4242 34.5744 56.5629 34.5459 56.7223 34.5459C56.9636 34.5459 57.1549 34.6132 57.2962 34.7476C57.44 34.8821 57.5122 35.0631 57.5122 35.2907V36.5358H57.1807L57.142 36.3225H57.1229C57.0791 36.3871 57.0059 36.4453 56.9032 36.497C56.8006 36.5487 56.681 36.5746 56.5449 36.5746ZM56.5835 36.2449C56.7527 36.2449 56.8862 36.1984 56.9842 36.1052C57.0817 36.0096 57.1307 35.8802 57.1307 35.7174V35.6475H56.6645C56.5201 35.6475 56.4123 35.676 56.3407 35.7329C56.2711 35.7898 56.2365 35.8635 56.2365 35.9539C56.2365 36.0419 56.2659 36.113 56.3252 36.1673C56.3866 36.219 56.4727 36.2449 56.5835 36.2449ZM58.5461 36.5358C58.4146 36.5358 58.312 36.5009 58.2378 36.4311C58.1656 36.3587 58.1295 36.2617 58.1295 36.1402V34.9454H57.8216V34.5847H58.1295V34.0184H58.5111V34.5847H58.9545V34.9454H58.5111V36.0626C58.5111 36.1427 58.5513 36.1828 58.6307 36.1828H58.9545V36.5358H58.5461ZM59.7687 36.5358H59.3871V34.5847H59.7687V36.5358ZM59.7878 34.2162H59.3717V33.8283H59.7878V34.2162ZM61.1342 36.5746C60.9542 36.5746 60.7913 36.5319 60.6448 36.4466C60.4984 36.3587 60.3829 36.2384 60.2978 36.0858C60.2158 35.9307 60.1745 35.7548 60.1745 35.5583C60.1745 35.3644 60.2158 35.1911 60.2978 35.0385C60.3829 34.8834 60.4984 34.7632 60.6448 34.6778C60.7913 34.5899 60.9542 34.5459 61.1342 34.5459C61.3141 34.5459 61.4761 34.5899 61.6199 34.6778C61.7664 34.7632 61.8808 34.8834 61.9628 35.0385C62.0474 35.1911 62.0902 35.3644 62.0902 35.5583C62.0902 35.7548 62.0474 35.9307 61.9628 36.0858C61.8808 36.2384 61.7664 36.3587 61.6199 36.4466C61.4761 36.5319 61.3141 36.5746 61.1342 36.5746ZM61.1342 36.2177C61.2394 36.2177 61.3358 36.1906 61.4235 36.1363C61.5132 36.082 61.5838 36.0044 61.6354 35.9035C61.6864 35.8027 61.7122 35.6876 61.7122 35.5583C61.7122 35.429 61.6864 35.3152 61.6354 35.217C61.5838 35.1161 61.5132 35.0385 61.4235 34.9843C61.3358 34.93 61.2394 34.9028 61.1342 34.9028C61.029 34.9028 60.9315 34.93 60.8413 34.9843C60.7541 35.0385 60.6845 35.1161 60.6335 35.217C60.5819 35.3152 60.5561 35.429 60.5561 35.5583C60.5561 35.6876 60.5819 35.8027 60.6335 35.9035C60.6845 36.0044 60.7541 36.082 60.8413 36.1363C60.9315 36.1906 61.029 36.2177 61.1342 36.2177ZM62.4991 36.5358V34.5847H62.8271L62.8652 34.7864H62.8848C62.9333 34.7244 63.0081 34.6687 63.1081 34.6196C63.2086 34.5705 63.3242 34.5459 63.4551 34.5459C63.6042 34.5459 63.7362 34.5808 63.8522 34.6507C63.9703 34.7179 64.0615 34.8135 64.1255 34.9377C64.1925 35.0618 64.2255 35.2041 64.2255 35.3644V36.5358H63.8444V35.3954C63.8444 35.2558 63.7991 35.1394 63.7093 35.0463C63.6196 34.9532 63.5077 34.9067 63.3742 34.9067C63.2839 34.9067 63.2009 34.9287 63.1236 34.9726C63.0493 35.0166 62.99 35.0761 62.9462 35.151C62.9029 35.226 62.8807 35.3075 62.8807 35.3954V36.5358H62.4991ZM65.1434 36.5358H64.704V36.0975H65.1434V36.5358Z" fill="#9199A6"/>
<path d="M67.9388 36.5358H67.5345V33.8206H67.9388V36.5358ZM68.4931 36.5358V34.5847H68.8206L68.8593 34.7864H68.8783C68.9273 34.7244 68.9954 34.6687 69.0825 34.6196C69.1702 34.5705 69.2651 34.5459 69.3677 34.5459C69.5012 34.5459 69.6173 34.5783 69.7147 34.6429C69.8148 34.7076 69.8844 34.7787 69.9225 34.8563H69.9421C69.9932 34.7761 70.0741 34.705 70.185 34.6429C70.2979 34.5783 70.4238 34.5459 70.5625 34.5459C70.696 34.5459 70.8156 34.5796 70.9208 34.6468C71.0286 34.7114 71.1137 34.8019 71.1751 34.9183C71.2369 35.0347 71.2679 35.1678 71.2679 35.3178V36.5358H70.8863V35.3411C70.8863 35.2067 70.8502 35.1006 70.7785 35.023C70.7089 34.9454 70.6151 34.9067 70.497 34.9067C70.3815 34.9067 70.2814 34.9493 70.1963 35.0347C70.1118 35.1174 70.069 35.2196 70.069 35.3411V36.5358H69.6915V35.3411C69.6915 35.2092 69.6554 35.1045 69.5837 35.0269C69.5116 34.9467 69.4167 34.9067 69.2986 34.9067C69.1831 34.9067 69.0825 34.9493 68.998 35.0347C68.9155 35.1174 68.8747 35.2196 68.8747 35.3411V36.5358H68.4931ZM71.7748 37.3116V34.5847H72.1022L72.1409 34.833H72.1599C72.309 34.6416 72.5096 34.5459 72.7612 34.5459C72.9283 34.5459 73.0799 34.5886 73.216 34.6739C73.3521 34.7593 73.4589 34.8795 73.5357 35.0347C73.6156 35.1872 73.6553 35.3618 73.6553 35.5583C73.6553 35.7548 73.6156 35.9307 73.5357 36.0858C73.4589 36.241 73.3521 36.3613 73.216 36.4466C73.0799 36.5319 72.9283 36.5746 72.7612 36.5746C72.6328 36.5746 72.5199 36.55 72.4219 36.5009C72.3244 36.4517 72.2425 36.3845 72.1754 36.2992H72.1563V37.3116H71.7748ZM72.7148 36.2177C72.8153 36.2177 72.9076 36.1906 72.9927 36.1363C73.0799 36.082 73.1479 36.0044 73.1969 35.9035C73.248 35.8027 73.2738 35.6876 73.2738 35.5583C73.2738 35.429 73.248 35.3152 73.1969 35.217C73.1479 35.1161 73.0799 35.0385 72.9927 34.9843C72.9076 34.93 72.8153 34.9028 72.7148 34.9028C72.6148 34.9028 72.5209 34.93 72.4338 34.9843C72.3487 35.0385 72.2806 35.1161 72.2296 35.217C72.1806 35.3152 72.1563 35.429 72.1563 35.5583C72.1563 35.6876 72.1806 35.8027 72.2296 35.9035C72.2806 36.0044 72.3487 36.082 72.4338 36.1363C72.5209 36.1906 72.6148 36.2177 72.7148 36.2177ZM74.664 36.5746C74.5278 36.5746 74.4072 36.5487 74.302 36.497C74.1968 36.4427 74.1158 36.3703 74.0591 36.2798C74.0024 36.1867 73.9745 36.0833 73.9745 35.9695C73.9745 35.7781 74.04 35.6256 74.171 35.5118C74.302 35.398 74.4969 35.3411 74.7568 35.3411H75.2497V35.2907C75.2497 35.1639 75.2126 35.0631 75.1384 34.9881C75.0662 34.9131 74.9672 34.8756 74.8413 34.8756C74.7207 34.8756 74.6232 34.9041 74.5485 34.961C74.4742 35.0153 74.4304 35.0812 74.4175 35.1588H74.0436C74.0514 35.0528 74.0875 34.9532 74.1514 34.8601C74.2159 34.7645 74.3071 34.6882 74.4252 34.6313C74.5433 34.5744 74.682 34.5459 74.8413 34.5459C75.0827 34.5459 75.2745 34.6132 75.4158 34.7476C75.5597 34.8821 75.6313 35.0631 75.6313 35.2907V36.5358H75.2998L75.2616 36.3225H75.242C75.1987 36.3871 75.1255 36.4453 75.0223 36.497C74.9197 36.5487 74.8001 36.5746 74.664 36.5746ZM74.7026 36.2449C74.8723 36.2449 75.0058 36.1984 75.1033 36.1052C75.2013 36.0096 75.2497 35.8802 75.2497 35.7174V35.6475H74.7836C74.6397 35.6475 74.532 35.676 74.4598 35.7329C74.3907 35.7898 74.3556 35.8635 74.3556 35.9539C74.3556 36.0419 74.3855 36.113 74.4443 36.1673C74.5062 36.219 74.5923 36.2449 74.7026 36.2449ZM76.988 36.5746C76.808 36.5746 76.6451 36.5319 76.4986 36.4466C76.3522 36.3587 76.2367 36.2384 76.1516 36.0858C76.0696 35.9307 76.0284 35.7548 76.0284 35.5583C76.0284 35.3644 76.0696 35.1911 76.1516 35.0385C76.2367 34.8834 76.3522 34.7632 76.4986 34.6778C76.6451 34.5899 76.808 34.5459 76.988 34.5459C77.2216 34.5459 77.417 34.6119 77.5738 34.7437C77.7305 34.8756 77.8321 35.045 77.878 35.2519H77.4928C77.4593 35.1433 77.399 35.058 77.3118 34.9959C77.2242 34.9338 77.1164 34.9028 76.988 34.9028C76.8828 34.9028 76.7864 34.93 76.6992 34.9843C76.6116 35.0385 76.5425 35.1161 76.4909 35.217C76.4393 35.3152 76.4141 35.429 76.4141 35.5583C76.4141 35.6876 76.4393 35.8027 76.4909 35.9035C76.5425 36.0044 76.6116 36.082 76.6992 36.1363C76.7864 36.1906 76.8828 36.2177 76.988 36.2177C77.1164 36.2177 77.2242 36.1854 77.3118 36.1208C77.399 36.0561 77.4593 35.9669 77.4928 35.8531H77.878C77.8321 36.0652 77.7305 36.2384 77.5738 36.3729C77.417 36.5073 77.2216 36.5746 76.988 36.5746ZM78.7876 36.5358C78.6567 36.5358 78.554 36.5009 78.4793 36.4311C78.4076 36.3587 78.3715 36.2617 78.3715 36.1402V34.9454H78.0631V34.5847H78.3715V34.0184H78.7531V34.5847H79.196V34.9454H78.7531V36.0626C78.7531 36.1427 78.7928 36.1828 78.8727 36.1828H79.196V36.5358H78.7876Z" fill="#9199A6"/>
</g>
<defs>
<clipPath id="clip0_199_645">
<rect width="79.4105" height="37.127" fill="white"/>
</clipPath>
</defs>
</svg>
