<svg width="238" height="34" viewBox="0 0 238 34" fill="none" xmlns="http://www.w3.org/2000/svg">
<path d="M89.4329 13.1197V27.9764H84.008V13.1197H78.5212V8.38971H94.9043V13.1197H89.4329Z" fill="#9199A6"/>
<path d="M107.583 22.0682H98.9652C99.1357 23.6965 100.081 24.4099 101.461 24.4099C102.747 24.4099 103.817 24.1308 105.258 23.3709L107.18 26.5965C105.367 27.6666 103.491 28.2714 101.197 28.2714C96.7797 28.2714 94.3463 25.1388 94.3463 20.6259C94.3463 15.5548 97.1982 12.9649 101.058 12.9649C105.088 12.9649 107.598 15.6168 107.598 21.0757C107.598 21.5099 107.598 21.8201 107.583 22.0682ZM100.918 16.7024C99.7712 16.7024 99.1357 17.4933 98.9652 18.9356H103.166C102.902 17.4468 102.406 16.7024 100.918 16.7024Z" fill="#9199A6"/>
<path d="M116.945 28.2866C112.636 28.2866 110.063 25.5416 110.063 20.5945C110.063 16.0817 112.357 12.9801 117.053 12.9801C119.828 12.9801 121.409 14.2673 122.695 16.3298L119.223 18.9662C118.526 17.679 118.045 17.0587 116.96 17.0587C115.674 17.0587 115.023 18.3459 115.023 20.6721C115.023 22.9983 115.72 24.1924 117.1 24.1924C118.045 24.1924 118.727 23.6651 119.642 22.2849L122.835 24.7817C121.13 27.294 119.549 28.2866 116.945 28.2866Z" fill="#9199A6"/>
<path d="M134.103 27.9766V19.6332C134.103 17.7257 133.467 17.2295 132.429 17.2295C131.359 17.2295 130.724 17.7257 130.724 19.5867V27.9766H125.687V9.58399L130.724 7.56794V14.2674C131.654 13.5696 132.677 12.9803 134.413 12.9803C137.637 12.9803 139.171 15.1359 139.171 18.9974V27.9766H134.103Z" fill="#9199A6"/>
<path d="M151.214 28.2868C145.402 28.2868 142.287 23.9755 142.287 18.191C142.287 11.8947 145.976 8.09525 151.23 8.09525C156.035 8.09525 157.941 10.1733 159.29 13.8643L154.376 15.7717C153.679 13.9573 153.012 12.8097 151.214 12.8097C148.951 12.8097 147.975 15.0739 147.975 18.1755C147.975 21.1686 148.92 23.5413 151.276 23.5413C152.981 23.5413 153.71 22.6108 154.764 20.7654L159.352 23.2001C158.05 25.79 155.864 28.2868 151.214 28.2868Z" fill="#9199A6"/>
<path d="M171.736 18.8269C171.1 18.1291 170.372 17.6018 169.396 17.6018C168.171 17.6018 167.412 18.1911 167.412 19.9745V27.9767H162.374V13.2906H167.412V14.3606C168.28 13.5232 169.256 12.9959 170.542 12.9959C171.612 12.9959 172.325 13.244 172.914 13.6162L171.736 18.8269Z" fill="#9199A6"/>
<path d="M183.702 27.9766V26.9996C182.803 27.6975 181.749 28.2868 180.044 28.2868C176.82 28.2868 175.285 26.1312 175.285 22.2697V13.2905H180.354V21.6338C180.354 23.5413 180.989 24.0376 182.028 24.0376C183.066 24.0376 183.702 23.5413 183.702 21.6803V13.2905H188.77V27.9766H183.702Z" fill="#9199A6"/>
<path d="M200.813 27.9764V19.6331C200.813 17.7256 200.178 17.2293 199.139 17.2293C198.07 17.2293 197.434 17.7256 197.434 19.5865V27.9764H192.397V13.2902H197.434V14.2673C198.364 13.5694 199.387 12.9801 201.123 12.9801C204.347 12.9801 205.882 15.1357 205.882 18.9972V27.9764H200.813Z" fill="#9199A6"/>
<path d="M215.693 28.2866C211.384 28.2866 208.811 25.5416 208.811 20.5945C208.811 16.0817 211.105 12.9801 215.801 12.9801C218.576 12.9801 220.157 14.2673 221.443 16.3298L217.971 18.9662C217.274 17.679 216.793 17.0587 215.708 17.0587C214.422 17.0587 213.771 18.3459 213.771 20.6721C213.771 22.9983 214.468 24.1924 215.848 24.1924C216.793 24.1924 217.475 23.6651 218.39 22.2849L221.583 24.7817C219.878 27.294 218.297 28.2866 215.693 28.2866Z" fill="#9199A6"/>
<path d="M232.851 27.9766V19.6332C232.851 17.7257 232.215 17.2295 231.177 17.2295C230.108 17.2295 229.472 17.7257 229.472 19.5867V27.9766H224.435V9.58399L229.472 7.56794V14.2674C230.402 13.5696 231.425 12.9803 233.161 12.9803C236.385 12.9803 237.919 15.1359 237.919 18.9974V27.9766H232.851Z" fill="#9199A6"/>
<path d="M0 0V11.1968H11.1907V33.575H22.366V11.1968H33.5567V0H0Z" fill="#9199A6"/>
<path d="M44.7319 22.3783V11.1969L33.5567 11.1968L33.5567 33.5751H67.0979V22.3783H44.7319Z" fill="#9199A6"/>
<path d="M67.0979 0H44.7319L44.7319 11.1969L67.0979 11.1968V0Z" fill="#9199A6"/>
</svg>
