<svg width="129" height="45" viewBox="0 0 129 45" fill="none" xmlns="http://www.w3.org/2000/svg">
<path d="M62.7347 6.65876L60.6288 8.76382C54.946 5.1593 48.3994 3.14575 41.6725 2.93341C34.9456 2.72106 28.2849 4.31769 22.386 7.55663C16.487 10.7956 11.566 15.558 8.13672 21.3468C4.70743 27.1356 2.89558 33.7385 2.89034 40.4661H0C0.000683832 33.1627 1.97855 25.9955 5.72388 19.7246C9.46921 13.4536 14.8424 8.31273 21.2737 4.84694C27.705 1.38114 34.9547 -0.280355 42.2541 0.0386241C49.5535 0.357603 56.6305 2.64517 62.7347 6.65876Z" fill="#9199A6"/>
<path d="M54.7545 8.84669L52.5591 11.0517C47.7279 9.07119 42.4834 8.30971 37.2882 8.83451C32.093 9.35931 27.1069 11.1543 22.7699 14.0609C18.4328 16.9676 14.8782 20.8967 12.4196 25.5015C9.96094 30.1063 8.67396 35.2452 8.67217 40.4648H5.79236C5.79692 34.6717 7.25224 28.972 10.0256 23.8854C12.799 18.7987 16.8021 14.487 21.67 11.3435C26.5379 8.19998 32.1157 6.32465 37.8945 5.88853C43.6734 5.4524 49.4696 6.46937 54.7545 8.84669Z" fill="#9199A6"/>
<path d="M45.8044 12.0462L43.2247 14.5986C42.3138 14.499 41.3981 14.4498 40.4818 14.4513C33.5799 14.4513 26.9607 17.1919 22.0803 22.0704C17.1999 26.9488 14.4582 33.5654 14.4582 40.4646H11.5836C11.5878 32.8047 14.6338 25.4596 20.0523 20.0432C25.4709 14.6268 32.8188 11.582 40.4818 11.5778C42.2666 11.5712 44.0483 11.728 45.8044 12.0462Z" fill="#9199A6"/>
<path d="M27.7763 40.4745V28.8966H23.5645V26.3653H34.6363V28.8809H30.3982V40.4587L27.7763 40.4745Z" fill="#9199A6"/>
<path d="M36.4477 40.4745V26.3653H38.959V31.2017H39.059C39.2577 30.9669 39.4901 30.763 39.7487 30.5965C40.5321 30.1148 41.4552 29.9115 42.3686 30.0194C43.282 30.1273 44.1323 30.5402 44.7818 31.1912C45.1697 31.6169 45.4699 32.1149 45.665 32.6567C45.8602 33.1986 45.9465 33.7735 45.919 34.3488V40.4745H43.4077V34.5277C43.4223 34.2273 43.3758 33.9271 43.2709 33.6452C43.166 33.3633 43.0049 33.1057 42.7974 32.8879C42.5899 32.6702 42.3403 32.4968 42.0637 32.3783C41.7872 32.2599 41.4895 32.1988 41.1886 32.1988C40.8877 32.1988 40.59 32.2599 40.3135 32.3783C40.0369 32.4968 39.7873 32.6702 39.5798 32.8879C39.3723 33.1057 39.2112 33.3633 39.1063 33.6452C39.0014 33.9271 38.9549 34.2273 38.9695 34.5277V40.4745H36.4477Z" fill="#9199A6"/>
<path d="M48.437 40.4744V30.1911H50.5428L50.7429 31.1015H50.8429C50.9717 30.9333 51.1222 30.7829 51.2904 30.6542C51.684 30.3549 52.1647 30.1922 52.6593 30.1911H54.6757V32.633H52.8646C51.587 32.633 50.9482 33.2715 50.9482 34.5486V40.4744H48.437Z" fill="#9199A6"/>
<path d="M56.1171 28.5785V26.1577H58.839V28.5785H56.1171ZM56.2172 40.4722V30.1889H58.739V40.4722H56.2172Z" fill="#9199A6"/>
<path d="M63.5754 40.4744L60.048 30.1911H62.6803L65.0863 37.3694H65.4917L67.9135 30.2122H70.5459L67.0027 40.4744H63.5754Z" fill="#9199A6"/>
<path d="M78.5041 37.4494H81.1365C81.0469 37.7528 80.914 38.0418 80.7416 38.3072C80.5009 38.684 80.224 39.0365 79.915 39.3597C79.5008 39.7768 79.0017 40.0999 78.4514 40.307C77.7969 40.5601 77.0999 40.6851 76.3982 40.6754C75.7013 40.6976 75.0073 40.5758 74.3596 40.3177C73.7119 40.0597 73.1245 39.6708 72.6339 39.1755C72.1393 38.6689 71.7526 38.0672 71.4974 37.4068C71.2423 36.7465 71.1238 36.0412 71.1493 35.3338C71.1256 34.6265 71.2449 33.9218 71.5 33.2617C71.7551 32.6016 72.1408 31.9997 72.6339 31.492C73.1241 30.9999 73.7103 30.6138 74.356 30.3576C75.0018 30.1014 75.6933 29.9806 76.3877 30.0027C77.0545 29.99 77.7168 30.1154 78.3328 30.3707C78.9489 30.6261 79.5055 31.0061 79.9677 31.4868C80.4493 31.9689 80.8271 32.5444 81.0779 33.178C81.3287 33.8115 81.4472 34.4896 81.426 35.1706C81.426 35.2917 81.426 35.5337 81.3681 35.8969L81.326 36.1811H73.6605C73.7532 36.8421 74.0756 37.4495 74.5713 37.8967C75.0707 38.3401 75.72 38.5771 76.3877 38.5598C76.8683 38.5757 77.3434 38.4533 77.7565 38.2072C78.0766 38.036 78.3373 37.7717 78.5041 37.4494ZM73.6605 34.4286H78.9253C78.8305 33.7962 78.5374 33.2103 78.0882 32.7551C77.8642 32.5365 77.5977 32.3662 77.3052 32.2549C77.0126 32.1435 76.7004 32.0935 76.3877 32.1078C75.7316 32.0841 75.0913 32.3119 74.5977 32.7445C74.1174 33.1946 73.7897 33.7833 73.6605 34.4286Z" fill="#9199A6"/>
<path d="M82.3369 40.4745L87.6806 26.3653H89.5022L94.8406 40.4745H93.6297L92.1767 36.6433H84.9956L83.5425 40.4745H82.3369ZM85.4641 35.4329H91.7134L88.7914 27.6704H88.386L85.4641 35.4329Z" fill="#9199A6"/>
<path d="M96.3457 41.276H97.5566C97.5815 41.5879 97.674 41.8907 97.8277 42.1633C97.9813 42.436 98.1924 42.6719 98.4464 42.8548C99.1015 43.3072 99.889 43.5276 100.684 43.4811C101.546 43.5271 102.393 43.2344 103.042 42.6654C103.335 42.3791 103.564 42.0341 103.714 41.6532C103.863 41.2722 103.931 40.8639 103.911 40.4551V38.2553H103.811C103.436 38.8205 102.926 39.2829 102.326 39.6001C101.726 39.9172 101.057 40.0791 100.379 40.0709C99.7724 40.0808 99.1711 39.9615 98.6146 39.7211C98.0581 39.4806 97.5593 39.1244 97.1512 38.6763C96.2631 37.7132 95.7919 36.4382 95.8403 35.1292C95.7919 33.8178 96.2651 32.5405 97.1565 31.5769C97.5639 31.128 98.0626 30.7713 98.6193 30.5307C99.1759 30.2902 99.7775 30.1714 100.384 30.1823C101.062 30.1741 101.732 30.336 102.331 30.6532C102.931 30.9703 103.442 31.4327 103.816 31.998H103.916L104.116 30.3876H105.127V40.4708C105.151 41.0367 105.056 41.6012 104.849 42.1284C104.643 42.6557 104.329 43.1343 103.927 43.5337C103.495 43.9406 102.986 44.2565 102.43 44.4626C101.874 44.6688 101.282 44.7609 100.689 44.7336C99.5816 44.7845 98.4937 44.4289 97.6303 43.7337C97.2612 43.4321 96.957 43.0588 96.7362 42.6364C96.5154 42.214 96.3826 41.7512 96.3457 41.276ZM98.0304 37.8079C98.3462 38.1403 98.7263 38.4049 99.1476 38.5857C99.569 38.7666 100.023 38.8598 100.481 38.8598C100.94 38.8598 101.393 38.7666 101.815 38.5857C102.236 38.4049 102.616 38.1403 102.932 37.8079C103.564 37.0574 103.911 36.1078 103.911 35.1266C103.911 34.1454 103.564 33.1958 102.932 32.4453C102.615 32.1143 102.235 31.8509 101.814 31.6709C101.393 31.4909 100.939 31.3981 100.481 31.3981C100.023 31.3981 99.5698 31.4909 99.1486 31.6709C98.7274 31.8509 98.347 32.1143 98.0304 32.4453C97.3982 33.1958 97.0515 34.1454 97.0515 35.1266C97.0515 36.1078 97.3982 37.0574 98.0304 37.8079Z" fill="#9199A6"/>
<path d="M108.349 40.4727V30.3947H109.36L109.46 31.3998H109.56C109.781 31.0728 110.083 30.8083 110.436 30.6322C110.789 30.4561 111.182 30.3743 111.576 30.3947H113.393V31.6051H111.682C111.393 31.5872 111.104 31.6289 110.832 31.7276C110.56 31.8263 110.312 31.9798 110.102 32.1787C109.904 32.4015 109.753 32.6614 109.656 32.9433C109.559 33.2251 109.519 33.5233 109.539 33.8207V40.4727H108.349Z" fill="#9199A6"/>
<path d="M115.209 28.0717V26.6613H116.62V28.0717H115.209ZM115.299 40.4705V30.3925H116.51V40.4705H115.299Z" fill="#9199A6"/>
<path d="M127.008 37.146H128.319C128.118 38.1726 127.558 39.0942 126.739 39.7458C125.917 40.3778 124.901 40.7051 123.865 40.672C123.226 40.6942 122.589 40.5778 121.999 40.3307C121.41 40.0836 120.88 39.7117 120.448 39.2406C119.531 38.1891 119.058 36.8235 119.126 35.4304C119.06 34.0376 119.533 32.6729 120.448 31.6202C120.881 31.1499 121.41 30.7786 122 30.5316C122.59 30.2845 123.226 30.1676 123.865 30.1888C124.896 30.1626 125.906 30.4873 126.729 31.1097C127.536 31.7334 128.095 32.6229 128.308 33.62H126.997C126.816 33.0294 126.469 32.5033 125.997 32.1044C125.409 31.613 124.657 31.3612 123.891 31.3992C123.414 31.3847 122.94 31.4747 122.502 31.6629C122.063 31.8511 121.671 32.1329 121.353 32.4886C120.661 33.3074 120.307 34.3596 120.364 35.4304C120.305 36.503 120.659 37.5573 121.353 38.3775C121.67 38.7327 122.06 39.0147 122.496 39.2038C122.933 39.3928 123.405 39.4844 123.881 39.4721C124.653 39.5061 125.408 39.2381 125.986 38.7248C126.467 38.3037 126.821 37.757 127.008 37.146Z" fill="#9199A6"/>
</svg>
