<svg width="274" height="40" viewBox="0 0 274 40" fill="none" xmlns="http://www.w3.org/2000/svg">
<path fill-rule="evenodd" clip-rule="evenodd" d="M5.14463 14.6436C5.68615 13.177 6.43074 12.0263 7.3784 11.1801C7.5025 11.1237 7.63788 11.1012 7.77326 11.0786C7.90864 11.0673 8.23581 11.056 8.76605 11.056C9.05937 11.056 9.30757 11.0786 9.5332 11.1125C9.75884 11.1576 9.98447 11.2366 10.2214 11.3494C10.4583 11.4735 10.7403 11.6314 11.0562 11.8458L7.02867 15.0498L7.97633 15.8056V26.4781C6.9497 25.9817 6.09229 25.1807 5.5282 24.1879C4.73848 22.8228 4.34362 20.9839 4.34362 18.6937C4.33234 17.4528 4.6031 16.099 5.14463 14.6436ZM4.77233 10.5484C5.00925 10.5484 5.31385 10.5935 5.68615 10.6725C6.05844 10.7514 6.39689 10.8304 6.71278 10.9094C4.50157 11.8909 2.78675 13.5042 1.57961 15.7718C0.530412 17.7686 -0.011109 19.9911 0.000172727 22.2588C0.000172727 25.1581 1.00424 27.6401 3.02367 29.7047C5.04309 31.7692 7.5025 32.8071 10.3906 32.8071C13.1772 32.8071 15.5463 31.7354 17.4642 29.6031C19.3821 27.4709 20.3523 24.9551 20.3523 22.0557C20.0929 22.6649 19.7883 23.1726 19.4611 23.5787C19.0437 24.0751 18.5698 24.5377 18.0622 24.9438C17.6673 25.2822 17.3063 25.5417 16.9904 25.7109C16.6745 25.8802 16.2684 26.072 15.7607 26.2863V12.0488C16.3925 11.7894 16.9002 11.5186 17.2837 11.2366C17.6673 10.9658 18.0847 10.5597 18.536 10.0294C19.698 8.7433 20.3411 7.29925 20.4764 5.71981C19.6303 6.27261 18.8744 6.67875 18.1975 6.94951C17.5206 7.20899 16.7648 7.3895 15.9299 7.46847C15.7945 7.46847 15.614 7.47975 15.3771 7.50232C14.452 7.50232 13.0757 7.1413 11.248 6.41928C9.42039 5.69725 7.97633 5.33623 6.91585 5.33623C4.82874 5.33623 3.15905 6.31774 1.8955 8.25819C0.767328 9.99557 0.191962 12.0601 0.191962 14.4631C0.349905 13.7298 0.733483 13.0303 1.34269 12.3647C1.79396 11.8683 2.31292 11.4396 2.88829 11.1012C3.45237 10.7402 4.08415 10.5484 4.77233 10.5484ZM24.0189 32.6041L27.4598 28.7683L25.7224 26.9519V16.6743L26.7152 16.0087L29.4792 18.1071V31.6677C29.4792 32.4348 29.4341 33.0892 29.3439 33.6307C29.2649 34.1384 29.0505 34.6235 28.7346 35.0296L27.7644 36.2368C27.3244 36.7783 26.7829 37.207 26.1286 37.5229C27.4485 37.3875 28.5316 37.0942 29.3664 36.6316C30.2125 36.1691 31.0812 35.4358 31.9725 34.443C32.6268 33.6984 33.1232 32.9651 33.4504 32.2318C33.7888 31.4759 34.0032 30.6749 34.1047 29.8626V14.6662L32.9202 14.7452L29.2085 12.2519L26.5234 14.4631L25.6547 13.9893V6.47568L24.865 4.77215L21.3451 8.21306V27.6965L20.2734 28.9601L24.0189 32.6041ZM35.797 28.2944L42.1599 32.322L48.2068 25.9591L44.9239 28.2944L40.8963 25.4063V22.7213L48.094 17.3399L43.5137 11.1689L36.2031 16.2682V27.4145L35.797 28.2944ZM56.9502 8.41613V15.8056C56.4199 15.862 55.9912 15.9523 55.6641 16.0877C55.3369 16.2231 54.9871 16.4487 54.6149 16.7646C53.5544 17.5881 53.0354 18.6373 53.0354 19.9234C53.0241 20.3296 53.0805 20.7244 53.1934 21.108C53.5657 20.7921 53.9267 20.5778 54.2764 20.4762C54.6374 20.3747 55.0774 20.3183 55.6076 20.3183C55.8671 20.3183 56.0815 20.3521 56.2394 20.3973C56.3974 20.4537 56.6343 20.5552 56.9502 20.7132V27.9786L62.4105 33.4727L67.4309 28.3734L73.4779 33.4727L82.2888 24.9325V10.3115L76.8285 6.12595L72.8009 9.75865L67.3068 6.12595L62.4105 10.2325V7.82948C62.4105 7.03977 61.8464 6.14851 60.707 5.14445C60.3685 4.90753 60.0414 4.65933 59.7367 4.41114C59.4321 4.16294 59.2516 3.80193 59.2065 3.33938C59.1614 2.96708 59.1388 2.59479 59.1275 2.21121C59.1275 1.31996 59.4321 0.597929 60.0414 0.0789717C59.8157 0.033845 59.5901 0.0112817 59.3644 0C58.1799 0 57.1307 0.496394 56.2281 1.4779C55.3143 2.47069 54.863 3.56501 54.863 4.78343C54.863 4.96394 54.8856 5.22342 54.942 5.5393C55.1677 6.82542 55.8333 7.78436 56.9502 8.41613ZM83.3493 28.4975L88.2456 31.9384L91.7993 28.5765L96.0299 31.5436L99.6627 27.6288H98.3991L96.7858 25.9591V14.3841L95.9171 14.5421L91.8106 11.1012L84.0262 16.4713V27.8093L83.3493 28.4975ZM106.928 11.8683C106.432 11.6314 105.958 11.3268 105.529 10.9771L99.0873 15.5236V23.1951L99.6852 23.669H103.521L98.5458 32.322C99.3129 31.6677 99.8996 31.2277 100.328 31.0133C100.926 30.72 101.592 30.5733 102.269 30.5733C103.115 30.5733 103.792 30.6749 104.322 30.8667C104.852 31.0585 105.394 31.4082 105.947 31.9159L112.264 26.9406V19.1563L111.79 18.6825H107.56V18.2876L111.317 11.6878C110.922 11.9247 110.606 12.0601 110.369 12.1052C109.985 12.1504 109.602 12.1729 109.218 12.1616H108.383C107.876 12.1729 107.379 12.0714 106.928 11.8683ZM116.946 32.0512L120.421 28.1816L118.684 26.3653V16.0877L119.631 15.4108L122.44 17.543V31.0585C122.452 31.7128 122.407 32.3671 122.305 33.0215C122.215 33.5292 122 34.003 121.651 34.4204C121.436 34.6799 121.154 35.0635 120.782 35.5711C120.308 36.1239 119.733 36.5752 119.078 36.9137C120.286 36.8121 121.369 36.5188 122.305 36.0337C123.241 35.5486 124.121 34.8265 124.934 33.8789C125.543 33.1681 126.017 32.4235 126.355 31.6451C126.694 30.8667 126.919 30.0657 127.032 29.2534V14.0683L125.881 14.1924L122.125 11.6991L119.439 13.8765L118.571 13.4026V5.92288L117.815 4.1855L114.261 7.62641V27.155L113.189 28.3734L116.946 32.0512ZM135.956 8.69817L132.402 5.81006L129.514 8.96893L132.515 11.6991L135.956 8.69817ZM130.383 17.622V28.3734L129.627 29.5242H130.969L134.049 32.1302L137.287 29.1631L141.439 32.5251L145.071 28.4975L143.921 27.0422V16.9676L144.868 16.4938L146.967 18.784V28.6555L150.645 31.8595L154.198 27.8319H152.54L151.592 26.2863V15.5349L152.066 14.5421L151.118 14.7452L147.486 11.857L143.932 15.5349L139.78 12.2519L136.339 16.0877H137.682L138.833 17.4302V27.3017L136.543 28.0914L135.076 26.9406V15.8733L135.55 15.1964L131.443 12.1504L128.081 15.7041L129.232 16.0651L130.383 17.622ZM201.446 28.0237L200.307 26.5571V16.4825L201.254 16.0087L203.353 18.2989V28.2155L207.031 31.3743L210.584 27.3468H208.926L207.978 25.8012V15.0498L208.452 14.1021L207.504 14.26L203.872 11.3719L200.318 15.0498L196.166 11.7668L192.725 15.6026H194.068L195.219 16.9451V26.8617L193.797 28.757L198.186 31.6451L201.446 28.0237ZM154.966 28.1027C155.496 28.1027 155.97 28.1703 156.41 28.3057C156.85 28.4411 157.267 28.6667 157.696 28.9939C158.113 29.3211 158.429 29.637 158.621 29.9416C158.813 30.2462 158.982 30.6636 159.117 31.1826L157.064 33.8338L154.887 36.7557C155.439 36.4398 155.913 36.248 156.308 36.1803C156.703 36.1127 157.278 36.0788 158.045 36.0788C158.937 36.1578 159.704 36.3721 160.336 36.7106C160.967 37.049 161.543 37.568 162.073 38.2562C163.337 37.7823 164.803 36.7219 166.484 35.0973C168.165 33.4615 169 32.1189 169 31.0697C169 30.8892 168.808 30.3139 168.425 29.3775C168.041 28.4185 167.849 27.4032 167.849 26.3653V14.0683L162.355 10.6273L155.439 15.5236V27.2227L154.966 28.1027ZM168.605 14.5872H170.895V28.3057L170.342 29.3775H171.685L174.573 31.5887L178.285 27.3581H176.66L175.588 26.2073V14.858L177.924 11.9699H175.588V4.42242L170.884 8.81099V11.8119L168.605 14.5872ZM178.601 28.1027L183.497 31.5774L192.037 25.6094V13.9893L191.168 14.1924L187.051 10.7176L179.266 16.0877V27.437L178.601 28.1027ZM218.718 8.4951V12.1729C218.03 12.1729 217.455 12.2406 216.981 12.3873C216.507 12.5339 216.056 12.816 215.616 13.2334C215.176 13.6508 214.928 14.1472 214.849 14.7C214.77 15.2528 214.725 15.9749 214.725 16.8774C214.725 17.2497 214.713 17.4979 214.68 17.6333C215.255 16.7082 216.067 16.3246 217.094 16.4825C217.782 16.5841 218.324 16.8774 218.718 17.3512V23.4772C217.511 24.1089 216.451 24.9438 215.56 25.9704C214.555 27.155 213.879 28.3734 213.54 29.6482C213.991 29.2985 214.465 28.9826 214.962 28.7232C215.356 28.5201 215.909 28.3283 216.62 28.1139C216.879 28.035 217.184 27.9447 217.534 27.8545C217.872 27.7642 218.267 27.7191 218.718 27.7191V39.531L223.897 35.3004L225.634 36.5639V29.84L227.845 30.5959L235.314 25.4176V8.02127L230.53 4.1855L225.634 8.29203V6.12595L224.686 5.33623V8.81099L223.897 9.36379V5.73109L219.869 2.63991L215.086 7.34437C215.481 7.10746 215.887 6.98336 216.304 6.98336C216.643 6.98336 216.981 7.03977 217.297 7.1413C218.008 7.41206 218.481 7.86333 218.718 8.4951ZM235.991 28.4975L240.887 31.9384L249.461 25.9704V14.3841L248.592 14.5421L244.441 11.1012L236.656 16.4713V27.8093L235.991 28.4975ZM258.678 11.6991C258.17 11.4509 257.674 11.1576 257.212 10.8304L250.804 15.3318V23.0033L251.356 23.4772H255.192L250.217 32.1302C250.77 31.6564 251.232 31.3067 251.605 31.0585C252.293 30.6072 253.082 30.3816 253.974 30.3816C254.797 30.3816 255.463 30.4831 255.993 30.6749C256.523 30.878 257.065 31.2164 257.618 31.7241L263.947 26.7489V18.9645L263.473 18.4907H259.242V18.0958L262.999 11.496C262.604 11.7329 262.288 11.8683 262.051 11.9135C261.814 11.9586 261.431 11.9699 260.901 11.9699H260.077C259.536 11.9699 259.073 11.8796 258.678 11.6991ZM264.048 14.779H266.338V28.4975L265.786 29.5693H267.128L269.971 31.7805L273.728 27.5499H272.103L271.032 26.3991V15.061L273.322 12.1729H271.032V4.62549L266.35 9.01406V12.015L264.048 14.779ZM88.7194 15.14L91.7993 17.4302V26.636L90.8065 27.7078L88.7081 25.8915L88.7194 15.14ZM165.243 31.3405C165.875 31.7918 166.191 32.3559 166.191 33.044C166.191 33.3599 166.157 33.5968 166.112 33.7548C165.954 33.9917 165.83 34.1496 165.751 34.2286C165.536 34.443 165.266 34.5783 164.961 34.6235C164.623 34.6799 164.171 34.5107 163.619 34.1271C163.066 33.7435 162.231 33.5517 161.125 33.5517C160.415 33.5517 159.772 33.6194 159.185 33.7548C158.609 33.8902 158 34.1158 157.369 34.4317L163.145 27.3129V28.2268C163.145 28.757 163.19 29.1857 163.28 29.5354C163.37 29.8739 163.573 30.2123 163.889 30.5282C164.341 30.799 164.792 31.081 165.243 31.3405ZM160.144 14.6662L163.145 16.8774V25.8125L162.276 26.7601L160.144 24.6279V14.6662ZM40.8963 21.5819V15.8056L43.7844 19.4383L40.8963 21.5819ZM108.609 15.061L105.924 19.8445H103.905V14.6662C104.694 15.1626 105.552 15.4221 106.477 15.4221C107.21 15.4108 107.921 15.298 108.609 15.061ZM183.971 14.7452L187.051 17.0805V26.2863L186.069 27.3581L183.971 25.4966V14.7452ZM104.649 22.7213H107.537V27.8206C107.131 27.674 106.714 27.5611 106.296 27.4822C106.014 27.4483 105.45 27.4258 104.581 27.4258C104.074 27.4145 103.577 27.4709 103.081 27.5837C102.664 27.6852 102.156 27.8657 101.581 28.1027L104.649 22.7213ZM223.897 11.9699L224.686 11.293V33.8563L223.897 33.3825V11.9699ZM225.634 10.7063L228.048 9.16072L229.786 10.4243V25.2822C228.962 24.8084 228.522 24.5602 228.443 24.5264L227.574 24.2443C226.931 24.0864 226.277 23.9284 225.634 23.7705V10.7063ZM14.452 12.4437C14.7115 12.4437 14.9259 12.4211 15.0838 12.3647V26.7489C14.091 27.2453 12.9967 27.5047 11.8798 27.5047C11.2255 27.5047 10.5598 27.4258 9.9055 27.2678C9.25116 27.1099 8.7322 26.8955 8.35991 26.636L12.8613 22.1347V12.2519C13.0531 12.3534 13.2562 12.4211 13.4705 12.4324C13.6961 12.4437 13.8428 12.455 13.9218 12.455L14.452 12.4437ZM241.372 15.14L244.452 17.4302V26.636L243.504 27.7078L241.372 25.8915V15.14ZM62.3992 11.3832L63.8658 10.2325L66.9119 13.3124V27.5047L65.6822 28.7683L62.3992 25.6094V11.3832ZM259.31 15.14C259.648 15.0836 259.987 14.9934 260.291 14.858L257.606 19.6414H255.587V14.4631C256.365 14.9595 257.268 15.219 258.193 15.219C258.599 15.219 258.971 15.1851 259.31 15.14ZM256.343 22.5295H259.231V27.6288C258.825 27.4822 258.407 27.3694 257.99 27.2904C257.708 27.2453 257.144 27.234 256.264 27.234C255.756 27.2227 255.249 27.2791 254.763 27.3919C254.267 27.5273 253.771 27.6965 253.297 27.9109L256.343 22.5295ZM72.7897 11.3832L74.2224 10.2325L77.3023 13.3124V27.5047L76.0388 28.7683L72.8009 25.6094L72.7897 11.3832Z" fill="#9199A6"/>
</svg>
